<mxfile host="Electron" modified="2024-07-13T17:58:23.975Z" agent="Mozilla/5.0 (Windows NT 10.0; Win64; x64) AppleWebKit/537.36 (KHTML, like Gecko) draw.io/24.5.3 Chrome/124.0.6367.207 Electron/30.0.6 Safari/537.36" etag="cJJy89bXpnNv29iXTI0r" version="24.5.3" type="device" pages="4">
  <diagram name="System Architecture" id="_80CxN9P1kbgFJOvUg9M">
    <mxGraphModel dx="1420" dy="822" grid="1" gridSize="10" guides="1" tooltips="1" connect="1" arrows="1" fold="1" page="1" pageScale="1" pageWidth="827" pageHeight="1169" math="0" shadow="0">
      <root>
        <mxCell id="0" />
        <mxCell id="1" parent="0" />
        <mxCell id="HzzTJSY6GwNlzx9w7kI1-1" value="Actor" style="shape=umlActor;verticalLabelPosition=bottom;verticalAlign=top;html=1;outlineConnect=0;" parent="1" vertex="1">
          <mxGeometry x="90" y="285" width="30" height="60" as="geometry" />
        </mxCell>
        <mxCell id="HzzTJSY6GwNlzx9w7kI1-2" value="PostgreSQL" style="shape=cylinder3;whiteSpace=wrap;html=1;boundedLbl=1;backgroundOutline=1;size=15;" parent="1" vertex="1">
          <mxGeometry x="580" y="160" width="80" height="120" as="geometry" />
        </mxCell>
        <mxCell id="HzzTJSY6GwNlzx9w7kI1-3" value="" style="group" parent="1" vertex="1" connectable="0">
          <mxGeometry x="200" y="150" width="120" height="330" as="geometry" />
        </mxCell>
        <mxCell id="HzzTJSY6GwNlzx9w7kI1-4" value="" style="rounded=0;whiteSpace=wrap;html=1;container=0;" parent="HzzTJSY6GwNlzx9w7kI1-3" vertex="1">
          <mxGeometry width="120" height="330" as="geometry" />
        </mxCell>
        <mxCell id="HzzTJSY6GwNlzx9w7kI1-5" value="Front-end" style="text;html=1;align=center;verticalAlign=middle;whiteSpace=wrap;rounded=0;container=0;" parent="HzzTJSY6GwNlzx9w7kI1-3" vertex="1">
          <mxGeometry x="30" y="10" width="60" height="30" as="geometry" />
        </mxCell>
        <mxCell id="HzzTJSY6GwNlzx9w7kI1-6" value="Dashboards" style="rounded=0;whiteSpace=wrap;html=1;container=0;" parent="HzzTJSY6GwNlzx9w7kI1-3" vertex="1">
          <mxGeometry x="10" y="50" width="100" height="60" as="geometry" />
        </mxCell>
        <mxCell id="HzzTJSY6GwNlzx9w7kI1-7" value="Alert Section" style="rounded=0;whiteSpace=wrap;html=1;container=0;" parent="HzzTJSY6GwNlzx9w7kI1-3" vertex="1">
          <mxGeometry x="10" y="120" width="100" height="60" as="geometry" />
        </mxCell>
        <mxCell id="HzzTJSY6GwNlzx9w7kI1-8" value="AGU Configuration Area" style="rounded=0;whiteSpace=wrap;html=1;container=0;" parent="HzzTJSY6GwNlzx9w7kI1-3" vertex="1">
          <mxGeometry x="10" y="190" width="100" height="60" as="geometry" />
        </mxCell>
        <mxCell id="HzzTJSY6GwNlzx9w7kI1-9" value="..." style="rounded=0;whiteSpace=wrap;html=1;container=0;strokeWidth=1;opacity=0;" parent="HzzTJSY6GwNlzx9w7kI1-3" vertex="1">
          <mxGeometry x="10" y="260" width="100" height="60" as="geometry" />
        </mxCell>
        <mxCell id="HzzTJSY6GwNlzx9w7kI1-10" value="URL" style="ellipse;shape=cloud;whiteSpace=wrap;html=1;" parent="1" vertex="1">
          <mxGeometry x="560" y="390" width="120" height="80" as="geometry" />
        </mxCell>
        <mxCell id="HzzTJSY6GwNlzx9w7kI1-11" value="" style="rounded=0;whiteSpace=wrap;html=1;container=0;" parent="1" vertex="1">
          <mxGeometry x="400" y="150" width="120" height="330" as="geometry" />
        </mxCell>
        <mxCell id="HzzTJSY6GwNlzx9w7kI1-12" value="Back-end" style="text;html=1;align=center;verticalAlign=middle;whiteSpace=wrap;rounded=0;container=0;" parent="1" vertex="1">
          <mxGeometry x="430" y="160" width="60" height="30" as="geometry" />
        </mxCell>
        <mxCell id="HzzTJSY6GwNlzx9w7kI1-13" value="Dynamic Fetching Scheduler" style="rounded=0;whiteSpace=wrap;html=1;container=0;" parent="1" vertex="1">
          <mxGeometry x="410" y="340" width="100" height="60" as="geometry" />
        </mxCell>
        <mxCell id="HzzTJSY6GwNlzx9w7kI1-14" value="Prediction Algorithms" style="rounded=0;whiteSpace=wrap;html=1;container=0;" parent="1" vertex="1">
          <mxGeometry x="410" y="270" width="100" height="60" as="geometry" />
        </mxCell>
        <mxCell id="HzzTJSY6GwNlzx9w7kI1-15" value="..." style="rounded=0;whiteSpace=wrap;html=1;container=0;opacity=0;" parent="1" vertex="1">
          <mxGeometry x="410" y="410" width="100" height="60" as="geometry" />
        </mxCell>
        <mxCell id="HzzTJSY6GwNlzx9w7kI1-16" value="Web API" style="rounded=0;whiteSpace=wrap;html=1;container=0;" parent="1" vertex="1">
          <mxGeometry x="410" y="200" width="100" height="60" as="geometry" />
        </mxCell>
        <mxCell id="HzzTJSY6GwNlzx9w7kI1-17" value="" style="endArrow=classic;startArrow=classic;html=1;rounded=0;" parent="1" source="HzzTJSY6GwNlzx9w7kI1-4" target="HzzTJSY6GwNlzx9w7kI1-11" edge="1">
          <mxGeometry width="50" height="50" relative="1" as="geometry">
            <mxPoint x="290" y="450" as="sourcePoint" />
            <mxPoint x="340" y="400" as="targetPoint" />
          </mxGeometry>
        </mxCell>
        <mxCell id="HzzTJSY6GwNlzx9w7kI1-18" value="" style="endArrow=classic;startArrow=classic;html=1;rounded=0;" parent="1" source="HzzTJSY6GwNlzx9w7kI1-11" target="HzzTJSY6GwNlzx9w7kI1-2" edge="1">
          <mxGeometry width="50" height="50" relative="1" as="geometry">
            <mxPoint x="290" y="450" as="sourcePoint" />
            <mxPoint x="340" y="400" as="targetPoint" />
          </mxGeometry>
        </mxCell>
        <mxCell id="HzzTJSY6GwNlzx9w7kI1-19" value="" style="endArrow=classic;startArrow=classic;html=1;rounded=0;" parent="1" source="HzzTJSY6GwNlzx9w7kI1-4" target="HzzTJSY6GwNlzx9w7kI1-1" edge="1">
          <mxGeometry width="50" height="50" relative="1" as="geometry">
            <mxPoint x="290" y="450" as="sourcePoint" />
            <mxPoint x="340" y="400" as="targetPoint" />
          </mxGeometry>
        </mxCell>
        <mxCell id="HzzTJSY6GwNlzx9w7kI1-20" value="" style="endArrow=classic;html=1;rounded=0;" parent="1" source="HzzTJSY6GwNlzx9w7kI1-10" target="HzzTJSY6GwNlzx9w7kI1-11" edge="1">
          <mxGeometry width="50" height="50" relative="1" as="geometry">
            <mxPoint x="290" y="450" as="sourcePoint" />
            <mxPoint x="340" y="400" as="targetPoint" />
          </mxGeometry>
        </mxCell>
      </root>
    </mxGraphModel>
  </diagram>
  <diagram id="hN7IslUoIDrSe8M1y9qv" name="EA">
    <mxGraphModel dx="2029" dy="1174" grid="1" gridSize="10" guides="1" tooltips="1" connect="1" arrows="1" fold="1" page="1" pageScale="1" pageWidth="850" pageHeight="1100" math="0" shadow="0">
      <root>
        <mxCell id="0" />
        <mxCell id="1" parent="0" />
        <mxCell id="1O60jNJPq4XGWWf-Q1_B-2" value="Transport Company" style="whiteSpace=wrap;html=1;align=center;" parent="1" vertex="1">
          <mxGeometry x="1230" y="280" width="100" height="40" as="geometry" />
        </mxCell>
        <mxCell id="1O60jNJPq4XGWWf-Q1_B-26" value="" style="endArrow=none;html=1;rounded=0;" parent="1" source="hmYQLrskhO7UIvC0XKfF-1" target="1O60jNJPq4XGWWf-Q1_B-2" edge="1">
          <mxGeometry relative="1" as="geometry">
            <mxPoint x="1620" y="240" as="sourcePoint" />
            <mxPoint x="1500" y="-330" as="targetPoint" />
          </mxGeometry>
        </mxCell>
        <mxCell id="1O60jNJPq4XGWWf-Q1_B-28" value="critical level" style="ellipse;whiteSpace=wrap;html=1;align=center;" parent="1" vertex="1">
          <mxGeometry x="100.38" y="640" width="100" height="40" as="geometry" />
        </mxCell>
        <mxCell id="1O60jNJPq4XGWWf-Q1_B-29" value="" style="endArrow=none;html=1;rounded=0;" parent="1" source="1O60jNJPq4XGWWf-Q1_B-28" target="1O60jNJPq4XGWWf-Q1_B-186" edge="1">
          <mxGeometry relative="1" as="geometry">
            <mxPoint x="261" y="670" as="sourcePoint" />
            <mxPoint x="291" y="456.73640167364033" as="targetPoint" />
          </mxGeometry>
        </mxCell>
        <mxCell id="1O60jNJPq4XGWWf-Q1_B-30" value="amount" style="ellipse;whiteSpace=wrap;html=1;align=center;" parent="1" vertex="1">
          <mxGeometry x="780" y="280" width="100" height="40" as="geometry" />
        </mxCell>
        <mxCell id="1O60jNJPq4XGWWf-Q1_B-31" value="" style="endArrow=none;html=1;rounded=0;" parent="1" source="1O60jNJPq4XGWWf-Q1_B-30" target="wlgBNyQyhqbbU1J9sBqX-3" edge="1">
          <mxGeometry relative="1" as="geometry">
            <mxPoint x="320" y="50" as="sourcePoint" />
            <mxPoint x="910" y="320" as="targetPoint" />
          </mxGeometry>
        </mxCell>
        <mxCell id="1O60jNJPq4XGWWf-Q1_B-32" value="local date" style="ellipse;whiteSpace=wrap;html=1;align=center;" parent="1" vertex="1">
          <mxGeometry x="780" y="200" width="100" height="40" as="geometry" />
        </mxCell>
        <mxCell id="1O60jNJPq4XGWWf-Q1_B-33" value="" style="endArrow=none;html=1;rounded=0;" parent="1" source="1O60jNJPq4XGWWf-Q1_B-32" target="wlgBNyQyhqbbU1J9sBqX-3" edge="1">
          <mxGeometry relative="1" as="geometry">
            <mxPoint x="320" y="50" as="sourcePoint" />
            <mxPoint x="970" y="320" as="targetPoint" />
          </mxGeometry>
        </mxCell>
        <mxCell id="1O60jNJPq4XGWWf-Q1_B-34" value="time of&lt;span style=&quot;background-color: initial;&quot;&gt;&amp;nbsp;day&lt;/span&gt;" style="ellipse;whiteSpace=wrap;html=1;align=center;" parent="1" vertex="1">
          <mxGeometry x="1000" y="200" width="100" height="40" as="geometry" />
        </mxCell>
        <mxCell id="1O60jNJPq4XGWWf-Q1_B-35" value="" style="endArrow=none;html=1;rounded=0;" parent="1" source="1O60jNJPq4XGWWf-Q1_B-34" target="wlgBNyQyhqbbU1J9sBqX-3" edge="1">
          <mxGeometry relative="1" as="geometry">
            <mxPoint x="320" y="50" as="sourcePoint" />
            <mxPoint x="970" y="280" as="targetPoint" />
          </mxGeometry>
        </mxCell>
        <mxCell id="1O60jNJPq4XGWWf-Q1_B-73" value="" style="endArrow=none;html=1;rounded=0;" parent="1" source="yE81tgpus3c0pUnLhM6t-84" target="wlgBNyQyhqbbU1J9sBqX-3" edge="1">
          <mxGeometry relative="1" as="geometry">
            <mxPoint x="940" y="420" as="sourcePoint" />
            <mxPoint x="940" y="320" as="targetPoint" />
          </mxGeometry>
        </mxCell>
        <mxCell id="1O60jNJPq4XGWWf-Q1_B-74" value="N" style="resizable=0;html=1;whiteSpace=wrap;align=right;verticalAlign=bottom;" parent="1O60jNJPq4XGWWf-Q1_B-73" connectable="0" vertex="1">
          <mxGeometry x="1" relative="1" as="geometry">
            <mxPoint y="17" as="offset" />
          </mxGeometry>
        </mxCell>
        <mxCell id="1O60jNJPq4XGWWf-Q1_B-90" value="max level" style="ellipse;whiteSpace=wrap;html=1;align=center;" parent="1" vertex="1">
          <mxGeometry x="100.38" y="480" width="100" height="40" as="geometry" />
        </mxCell>
        <mxCell id="1O60jNJPq4XGWWf-Q1_B-91" value="" style="endArrow=none;html=1;rounded=0;" parent="1" source="1O60jNJPq4XGWWf-Q1_B-90" target="1O60jNJPq4XGWWf-Q1_B-186" edge="1">
          <mxGeometry relative="1" as="geometry">
            <mxPoint x="230" y="440" as="sourcePoint" />
            <mxPoint x="390" y="440" as="targetPoint" />
          </mxGeometry>
        </mxCell>
        <mxCell id="1O60jNJPq4XGWWf-Q1_B-92" value="min level" style="ellipse;whiteSpace=wrap;html=1;align=center;" parent="1" vertex="1">
          <mxGeometry x="90" y="560" width="100" height="40" as="geometry" />
        </mxCell>
        <mxCell id="1O60jNJPq4XGWWf-Q1_B-93" value="" style="endArrow=none;html=1;rounded=0;" parent="1" source="1O60jNJPq4XGWWf-Q1_B-186" target="1O60jNJPq4XGWWf-Q1_B-92" edge="1">
          <mxGeometry relative="1" as="geometry">
            <mxPoint x="230" y="440" as="sourcePoint" />
            <mxPoint x="390" y="440" as="targetPoint" />
          </mxGeometry>
        </mxCell>
        <mxCell id="1O60jNJPq4XGWWf-Q1_B-112" value="name" style="ellipse;whiteSpace=wrap;html=1;align=center;" parent="1" vertex="1">
          <mxGeometry x="780" y="420" width="100" height="40" as="geometry" />
        </mxCell>
        <mxCell id="1O60jNJPq4XGWWf-Q1_B-113" value="" style="endArrow=none;html=1;rounded=0;" parent="1" source="yE81tgpus3c0pUnLhM6t-125" target="1O60jNJPq4XGWWf-Q1_B-112" edge="1">
          <mxGeometry relative="1" as="geometry">
            <mxPoint x="1325.8434549517128" y="677.12128890551" as="sourcePoint" />
            <mxPoint x="800" y="670" as="targetPoint" />
          </mxGeometry>
        </mxCell>
        <mxCell id="1O60jNJPq4XGWWf-Q1_B-114" value="Provider" style="whiteSpace=wrap;html=1;align=center;" parent="1" vertex="1">
          <mxGeometry x="890" y="840" width="100" height="40" as="geometry" />
        </mxCell>
        <mxCell id="1O60jNJPq4XGWWf-Q1_B-115" value="" style="endArrow=none;html=1;rounded=0;" parent="1" source="1O60jNJPq4XGWWf-Q1_B-114" target="1O60jNJPq4XGWWf-Q1_B-170" edge="1">
          <mxGeometry relative="1" as="geometry">
            <mxPoint x="820" y="1290" as="sourcePoint" />
            <mxPoint x="790" y="1350" as="targetPoint" />
          </mxGeometry>
        </mxCell>
        <mxCell id="1O60jNJPq4XGWWf-Q1_B-119" value="type" style="ellipse;whiteSpace=wrap;html=1;align=center;" parent="1" vertex="1">
          <mxGeometry x="780" y="760" width="100" height="40" as="geometry" />
        </mxCell>
        <mxCell id="1O60jNJPq4XGWWf-Q1_B-121" value="" style="endArrow=none;html=1;rounded=0;" parent="1" source="1O60jNJPq4XGWWf-Q1_B-114" target="1O60jNJPq4XGWWf-Q1_B-119" edge="1">
          <mxGeometry width="50" height="50" relative="1" as="geometry">
            <mxPoint x="860" y="1230" as="sourcePoint" />
            <mxPoint x="910" y="1180" as="targetPoint" />
          </mxGeometry>
        </mxCell>
        <mxCell id="1O60jNJPq4XGWWf-Q1_B-132" value="R1" style="text;html=1;align=center;verticalAlign=middle;whiteSpace=wrap;rounded=0;" parent="1" vertex="1">
          <mxGeometry x="1003" y="230" width="60" height="30" as="geometry" />
        </mxCell>
        <mxCell id="1O60jNJPq4XGWWf-Q1_B-135" value="R3" style="text;html=1;align=center;verticalAlign=middle;whiteSpace=wrap;rounded=0;" parent="1" vertex="1">
          <mxGeometry x="845" y="785" width="60" height="30" as="geometry" />
        </mxCell>
        <mxCell id="1O60jNJPq4XGWWf-Q1_B-141" value="&lt;div&gt;R5&lt;/div&gt;" style="text;html=1;align=center;verticalAlign=middle;whiteSpace=wrap;rounded=0;" parent="1" vertex="1">
          <mxGeometry x="171.5" y="560" width="60" height="30" as="geometry" />
        </mxCell>
        <mxCell id="1O60jNJPq4XGWWf-Q1_B-142" value="&lt;div&gt;R5&lt;/div&gt;" style="text;html=1;align=center;verticalAlign=middle;whiteSpace=wrap;rounded=0;" parent="1" vertex="1">
          <mxGeometry x="140.38" y="510" width="60" height="30" as="geometry" />
        </mxCell>
        <mxCell id="1O60jNJPq4XGWWf-Q1_B-170" value="id" style="ellipse;whiteSpace=wrap;html=1;align=center;fontStyle=4;" parent="1" vertex="1">
          <mxGeometry x="1000" y="760" width="100" height="40" as="geometry" />
        </mxCell>
        <mxCell id="1O60jNJPq4XGWWf-Q1_B-171" value="" style="endArrow=none;html=1;rounded=0;" parent="1" source="yE81tgpus3c0pUnLhM6t-117" target="1O60jNJPq4XGWWf-Q1_B-186" edge="1">
          <mxGeometry relative="1" as="geometry">
            <mxPoint x="240" y="420" as="sourcePoint" />
            <mxPoint x="850.8571428571427" y="570" as="targetPoint" />
          </mxGeometry>
        </mxCell>
        <mxCell id="1O60jNJPq4XGWWf-Q1_B-172" value="1" style="resizable=0;html=1;whiteSpace=wrap;align=right;verticalAlign=bottom;" parent="1O60jNJPq4XGWWf-Q1_B-171" connectable="0" vertex="1">
          <mxGeometry x="1" relative="1" as="geometry">
            <mxPoint y="20" as="offset" />
          </mxGeometry>
        </mxCell>
        <mxCell id="1O60jNJPq4XGWWf-Q1_B-181" value="" style="endArrow=none;html=1;rounded=0;" parent="1" source="yE81tgpus3c0pUnLhM6t-114" target="1O60jNJPq4XGWWf-Q1_B-114" edge="1">
          <mxGeometry relative="1" as="geometry">
            <mxPoint x="1009.310344827586" y="980.344827586207" as="sourcePoint" />
            <mxPoint x="1320" y="770" as="targetPoint" />
          </mxGeometry>
        </mxCell>
        <mxCell id="1O60jNJPq4XGWWf-Q1_B-182" value="N" style="resizable=0;html=1;align=right;verticalAlign=bottom;" parent="1O60jNJPq4XGWWf-Q1_B-181" connectable="0" vertex="1">
          <mxGeometry x="1" relative="1" as="geometry">
            <mxPoint x="10" as="offset" />
          </mxGeometry>
        </mxCell>
        <mxCell id="1O60jNJPq4XGWWf-Q1_B-186" value="Tanks" style="shape=ext;margin=3;double=1;whiteSpace=wrap;html=1;align=center;" parent="1" vertex="1">
          <mxGeometry x="210" y="560" width="100" height="40" as="geometry" />
        </mxCell>
        <mxCell id="1O60jNJPq4XGWWf-Q1_B-187" value="capacity" style="ellipse;whiteSpace=wrap;html=1;align=center;" parent="1" vertex="1">
          <mxGeometry x="320" y="480" width="100" height="40" as="geometry" />
        </mxCell>
        <mxCell id="1O60jNJPq4XGWWf-Q1_B-190" value="correction factor" style="ellipse;whiteSpace=wrap;html=1;align=center;" parent="1" vertex="1">
          <mxGeometry x="320" y="640" width="100" height="40" as="geometry" />
        </mxCell>
        <mxCell id="1O60jNJPq4XGWWf-Q1_B-191" value="" style="endArrow=none;html=1;rounded=0;" parent="1" target="1O60jNJPq4XGWWf-Q1_B-186" edge="1">
          <mxGeometry relative="1" as="geometry">
            <mxPoint x="334.27521222864675" y="642.8501414857644" as="sourcePoint" />
            <mxPoint x="271.125" y="580" as="targetPoint" />
          </mxGeometry>
        </mxCell>
        <mxCell id="1O60jNJPq4XGWWf-Q1_B-192" value="" style="endArrow=none;html=1;rounded=0;" parent="1" source="1O60jNJPq4XGWWf-Q1_B-186" edge="1">
          <mxGeometry relative="1" as="geometry">
            <mxPoint x="291.5" y="583.2307553332482" as="sourcePoint" />
            <mxPoint x="334.27521222864675" y="517.1498585142356" as="targetPoint" />
          </mxGeometry>
        </mxCell>
        <mxCell id="1O60jNJPq4XGWWf-Q1_B-197" value="&lt;div&gt;R5&lt;/div&gt;" style="text;html=1;align=center;verticalAlign=middle;whiteSpace=wrap;rounded=0;" parent="1" vertex="1">
          <mxGeometry x="140.38" y="620" width="60" height="30" as="geometry" />
        </mxCell>
        <mxCell id="1O60jNJPq4XGWWf-Q1_B-216" value="has" style="shape=rhombus;double=1;perimeter=rhombusPerimeter;whiteSpace=wrap;html=1;align=center;" parent="1" vertex="1">
          <mxGeometry x="560" y="560" width="80" height="40" as="geometry" />
        </mxCell>
        <mxCell id="1O60jNJPq4XGWWf-Q1_B-217" value="" style="shape=link;html=1;rounded=0;" parent="1" source="1O60jNJPq4XGWWf-Q1_B-216" target="1O60jNJPq4XGWWf-Q1_B-186" edge="1">
          <mxGeometry relative="1" as="geometry">
            <mxPoint x="229" y="590" as="sourcePoint" />
            <mxPoint x="389" y="590" as="targetPoint" />
          </mxGeometry>
        </mxCell>
        <mxCell id="1O60jNJPq4XGWWf-Q1_B-218" value="N" style="resizable=0;html=1;align=right;verticalAlign=bottom;" parent="1O60jNJPq4XGWWf-Q1_B-217" connectable="0" vertex="1">
          <mxGeometry x="1" relative="1" as="geometry">
            <mxPoint x="10" as="offset" />
          </mxGeometry>
        </mxCell>
        <mxCell id="1O60jNJPq4XGWWf-Q1_B-222" value="" style="endArrow=none;html=1;rounded=0;" parent="1" source="1O60jNJPq4XGWWf-Q1_B-186" target="tKiImPclrjGGZdupshlH-1" edge="1">
          <mxGeometry relative="1" as="geometry">
            <mxPoint x="70" y="470" as="sourcePoint" />
            <mxPoint x="334.27521222863015" y="642.8501414857535" as="targetPoint" />
          </mxGeometry>
        </mxCell>
        <mxCell id="tKiImPclrjGGZdupshlH-1" value="&lt;span style=&quot;border-bottom: 1px dotted&quot;&gt;number&lt;/span&gt;" style="ellipse;whiteSpace=wrap;html=1;align=center;" parent="1" vertex="1">
          <mxGeometry x="210" y="480" width="100" height="40" as="geometry" />
        </mxCell>
        <mxCell id="tKiImPclrjGGZdupshlH-4" value="longitude" style="ellipse;whiteSpace=wrap;html=1;align=center;" parent="1" vertex="1">
          <mxGeometry x="669" y="420" width="100" height="40" as="geometry" />
        </mxCell>
        <mxCell id="tKiImPclrjGGZdupshlH-5" value="latitude" style="ellipse;whiteSpace=wrap;html=1;align=center;" parent="1" vertex="1">
          <mxGeometry x="560" y="420" width="100" height="40" as="geometry" />
        </mxCell>
        <mxCell id="1O60jNJPq4XGWWf-Q1_B-45" value="" style="endArrow=none;html=1;rounded=0;" parent="1" source="yE81tgpus3c0pUnLhM6t-125" target="tKiImPclrjGGZdupshlH-4" edge="1">
          <mxGeometry relative="1" as="geometry">
            <mxPoint x="1300" y="680" as="sourcePoint" />
            <mxPoint x="1300.7500031252052" y="720.0002500164264" as="targetPoint" />
          </mxGeometry>
        </mxCell>
        <mxCell id="1O60jNJPq4XGWWf-Q1_B-44" value="" style="endArrow=none;html=1;rounded=0;" parent="1" source="tKiImPclrjGGZdupshlH-5" target="yE81tgpus3c0pUnLhM6t-125" edge="1">
          <mxGeometry relative="1" as="geometry">
            <mxPoint x="1206.724787771378" y="722.850141485748" as="sourcePoint" />
            <mxPoint x="1274.461378838827" y="677.1943191976213" as="targetPoint" />
          </mxGeometry>
        </mxCell>
        <mxCell id="hmYQLrskhO7UIvC0XKfF-1" value="id" style="ellipse;whiteSpace=wrap;html=1;align=center;fontStyle=4;" parent="1" vertex="1">
          <mxGeometry x="1230" y="200" width="100" height="40" as="geometry" />
        </mxCell>
        <mxCell id="yE81tgpus3c0pUnLhM6t-73" value="DNO" style="whiteSpace=wrap;html=1;align=center;" parent="1" vertex="1">
          <mxGeometry x="1570" y="560" width="100" height="40" as="geometry" />
        </mxCell>
        <mxCell id="yE81tgpus3c0pUnLhM6t-74" value="data" style="ellipse;whiteSpace=wrap;html=1;align=center;" parent="1" vertex="1">
          <mxGeometry x="320" y="760" width="100" height="40" as="geometry" />
        </mxCell>
        <mxCell id="yE81tgpus3c0pUnLhM6t-77" value="" style="endArrow=none;html=1;rounded=0;" parent="1" source="yE81tgpus3c0pUnLhM6t-93" edge="1">
          <mxGeometry relative="1" as="geometry">
            <mxPoint x="871" y="840" as="sourcePoint" />
            <mxPoint x="334.27521222864675" y="797.1498585142356" as="targetPoint" />
          </mxGeometry>
        </mxCell>
        <mxCell id="yE81tgpus3c0pUnLhM6t-78" value="" style="endArrow=none;html=1;rounded=0;" parent="1" source="yE81tgpus3c0pUnLhM6t-142" target="YGq4wxfUY90lXErYFjME-2" edge="1">
          <mxGeometry relative="1" as="geometry">
            <mxPoint x="958.2654796065167" y="560" as="sourcePoint" />
            <mxPoint x="1009.4817661335551" y="518.2384301035067" as="targetPoint" />
          </mxGeometry>
        </mxCell>
        <mxCell id="yE81tgpus3c0pUnLhM6t-79" value="notes" style="ellipse;whiteSpace=wrap;html=1;align=center;" parent="1" vertex="1">
          <mxGeometry x="1000" y="640" width="100" height="40" as="geometry" />
        </mxCell>
        <mxCell id="yE81tgpus3c0pUnLhM6t-80" value="" style="endArrow=none;html=1;rounded=0;" parent="1" source="yE81tgpus3c0pUnLhM6t-79" target="yE81tgpus3c0pUnLhM6t-142" edge="1">
          <mxGeometry relative="1" as="geometry">
            <mxPoint x="971" y="715" as="sourcePoint" />
            <mxPoint x="891" y="563.402489626556" as="targetPoint" />
          </mxGeometry>
        </mxCell>
        <mxCell id="yE81tgpus3c0pUnLhM6t-81" value="" style="endArrow=none;html=1;rounded=0;" parent="1" source="yE81tgpus3c0pUnLhM6t-144" target="yE81tgpus3c0pUnLhM6t-93" edge="1">
          <mxGeometry relative="1" as="geometry">
            <mxPoint x="145.72478777137633" y="797.149858514251" as="sourcePoint" />
            <mxPoint x="811" y="840" as="targetPoint" />
          </mxGeometry>
        </mxCell>
        <mxCell id="yE81tgpus3c0pUnLhM6t-82" value="name" style="ellipse;whiteSpace=wrap;html=1;align=center;" parent="1" vertex="1">
          <mxGeometry x="1460" y="480" width="100" height="40" as="geometry" />
        </mxCell>
        <mxCell id="yE81tgpus3c0pUnLhM6t-83" value="" style="endArrow=none;html=1;rounded=0;" parent="1" source="yE81tgpus3c0pUnLhM6t-73" target="yE81tgpus3c0pUnLhM6t-82" edge="1">
          <mxGeometry relative="1" as="geometry">
            <mxPoint x="1280" y="700" as="sourcePoint" />
            <mxPoint x="1440" y="700" as="targetPoint" />
          </mxGeometry>
        </mxCell>
        <mxCell id="yE81tgpus3c0pUnLhM6t-84" value="charge" style="shape=rhombus;perimeter=rhombusPerimeter;whiteSpace=wrap;html=1;align=center;" parent="1" vertex="1">
          <mxGeometry x="900" y="420" width="80" height="40" as="geometry" />
        </mxCell>
        <mxCell id="yE81tgpus3c0pUnLhM6t-85" value="" style="endArrow=none;html=1;rounded=0;" parent="1" source="yE81tgpus3c0pUnLhM6t-84" target="yE81tgpus3c0pUnLhM6t-142" edge="1">
          <mxGeometry relative="1" as="geometry">
            <mxPoint x="940" y="430" as="sourcePoint" />
            <mxPoint x="940.8571428571429" y="560" as="targetPoint" />
          </mxGeometry>
        </mxCell>
        <mxCell id="yE81tgpus3c0pUnLhM6t-86" value="1" style="resizable=0;html=1;whiteSpace=wrap;align=right;verticalAlign=bottom;" parent="yE81tgpus3c0pUnLhM6t-85" connectable="0" vertex="1">
          <mxGeometry x="1" relative="1" as="geometry">
            <mxPoint x="1" y="2" as="offset" />
          </mxGeometry>
        </mxCell>
        <mxCell id="yE81tgpus3c0pUnLhM6t-87" value="" style="shape=link;html=1;rounded=0;" parent="1" source="yE81tgpus3c0pUnLhM6t-143" target="yE81tgpus3c0pUnLhM6t-142" edge="1">
          <mxGeometry relative="1" as="geometry">
            <mxPoint x="1210" y="580" as="sourcePoint" />
            <mxPoint x="991" y="580" as="targetPoint" />
          </mxGeometry>
        </mxCell>
        <mxCell id="yE81tgpus3c0pUnLhM6t-88" value="N" style="resizable=0;html=1;whiteSpace=wrap;align=right;verticalAlign=bottom;" parent="yE81tgpus3c0pUnLhM6t-87" connectable="0" vertex="1">
          <mxGeometry x="1" relative="1" as="geometry">
            <mxPoint x="23" y="2" as="offset" />
          </mxGeometry>
        </mxCell>
        <mxCell id="yE81tgpus3c0pUnLhM6t-89" value="" style="endArrow=none;html=1;rounded=0;" parent="1" source="yE81tgpus3c0pUnLhM6t-143" target="yE81tgpus3c0pUnLhM6t-73" edge="1">
          <mxGeometry relative="1" as="geometry">
            <mxPoint x="1290" y="580" as="sourcePoint" />
            <mxPoint x="1100" y="570" as="targetPoint" />
          </mxGeometry>
        </mxCell>
        <mxCell id="yE81tgpus3c0pUnLhM6t-90" value="1" style="resizable=0;html=1;whiteSpace=wrap;align=right;verticalAlign=bottom;" parent="yE81tgpus3c0pUnLhM6t-89" connectable="0" vertex="1">
          <mxGeometry x="1" relative="1" as="geometry" />
        </mxCell>
        <mxCell id="yE81tgpus3c0pUnLhM6t-91" value="training" style="ellipse;whiteSpace=wrap;html=1;align=center;" parent="1" vertex="1">
          <mxGeometry x="450" y="640" width="100" height="40" as="geometry" />
        </mxCell>
        <mxCell id="yE81tgpus3c0pUnLhM6t-92" value="" style="endArrow=none;html=1;rounded=0;" parent="1" source="yE81tgpus3c0pUnLhM6t-91" target="yE81tgpus3c0pUnLhM6t-142" edge="1">
          <mxGeometry relative="1" as="geometry">
            <mxPoint x="790" y="580" as="sourcePoint" />
            <mxPoint x="991" y="561.7351598173516" as="targetPoint" />
          </mxGeometry>
        </mxCell>
        <mxCell id="yE81tgpus3c0pUnLhM6t-93" value="Measure" style="shape=ext;margin=3;double=1;whiteSpace=wrap;html=1;align=center;" parent="1" vertex="1">
          <mxGeometry x="210" y="840" width="100" height="40" as="geometry" />
        </mxCell>
        <mxCell id="yE81tgpus3c0pUnLhM6t-94" value="has" style="shape=rhombus;double=1;perimeter=rhombusPerimeter;whiteSpace=wrap;html=1;align=center;" parent="1" vertex="1">
          <mxGeometry x="560" y="840" width="80" height="40" as="geometry" />
        </mxCell>
        <mxCell id="yE81tgpus3c0pUnLhM6t-95" value="" style="endArrow=none;html=1;rounded=0;" parent="1" source="yE81tgpus3c0pUnLhM6t-94" target="1O60jNJPq4XGWWf-Q1_B-114" edge="1">
          <mxGeometry relative="1" as="geometry">
            <mxPoint x="970" y="880" as="sourcePoint" />
            <mxPoint x="800" y="880" as="targetPoint" />
          </mxGeometry>
        </mxCell>
        <mxCell id="yE81tgpus3c0pUnLhM6t-96" value="1" style="resizable=0;html=1;whiteSpace=wrap;align=right;verticalAlign=bottom;" parent="yE81tgpus3c0pUnLhM6t-95" connectable="0" vertex="1">
          <mxGeometry x="1" relative="1" as="geometry">
            <mxPoint as="offset" />
          </mxGeometry>
        </mxCell>
        <mxCell id="yE81tgpus3c0pUnLhM6t-97" value="isFavorite" style="ellipse;whiteSpace=wrap;html=1;align=center;" parent="1" vertex="1">
          <mxGeometry x="1330" y="480" width="100" height="40" as="geometry" />
        </mxCell>
        <mxCell id="yE81tgpus3c0pUnLhM6t-98" value="" style="endArrow=none;html=1;rounded=0;" parent="1" source="yE81tgpus3c0pUnLhM6t-142" target="yE81tgpus3c0pUnLhM6t-97" edge="1">
          <mxGeometry relative="1" as="geometry">
            <mxPoint x="891" y="568.9205141832454" as="sourcePoint" />
            <mxPoint x="1070" y="660" as="targetPoint" />
          </mxGeometry>
        </mxCell>
        <mxCell id="yE81tgpus3c0pUnLhM6t-100" value="name" style="ellipse;whiteSpace=wrap;html=1;align=center;" parent="1" vertex="1">
          <mxGeometry x="560" y="700" width="100" height="40" as="geometry" />
        </mxCell>
        <mxCell id="yE81tgpus3c0pUnLhM6t-101" value="number" style="ellipse;whiteSpace=wrap;html=1;align=center;" parent="1" vertex="1">
          <mxGeometry x="669" y="700" width="100" height="40" as="geometry" />
        </mxCell>
        <mxCell id="yE81tgpus3c0pUnLhM6t-102" value="type" style="ellipse;whiteSpace=wrap;html=1;align=center;" parent="1" vertex="1">
          <mxGeometry x="780" y="700" width="100" height="40" as="geometry" />
        </mxCell>
        <mxCell id="yE81tgpus3c0pUnLhM6t-103" value="" style="endArrow=none;html=1;rounded=0;" parent="1" source="yE81tgpus3c0pUnLhM6t-99" target="yE81tgpus3c0pUnLhM6t-102" edge="1">
          <mxGeometry relative="1" as="geometry">
            <mxPoint x="-292" y="650" as="sourcePoint" />
            <mxPoint x="-132" y="650" as="targetPoint" />
          </mxGeometry>
        </mxCell>
        <mxCell id="yE81tgpus3c0pUnLhM6t-104" value="" style="endArrow=none;html=1;rounded=0;" parent="1" source="yE81tgpus3c0pUnLhM6t-99" target="yE81tgpus3c0pUnLhM6t-101" edge="1">
          <mxGeometry relative="1" as="geometry">
            <mxPoint x="-292" y="650" as="sourcePoint" />
            <mxPoint x="-132" y="650" as="targetPoint" />
          </mxGeometry>
        </mxCell>
        <mxCell id="yE81tgpus3c0pUnLhM6t-105" value="" style="endArrow=none;html=1;rounded=0;" parent="1" source="yE81tgpus3c0pUnLhM6t-99" target="yE81tgpus3c0pUnLhM6t-100" edge="1">
          <mxGeometry relative="1" as="geometry">
            <mxPoint x="-292" y="650" as="sourcePoint" />
            <mxPoint x="-132" y="650" as="targetPoint" />
          </mxGeometry>
        </mxCell>
        <mxCell id="yE81tgpus3c0pUnLhM6t-106" value="" style="endArrow=none;html=1;rounded=0;" parent="1" source="yE81tgpus3c0pUnLhM6t-142" target="yE81tgpus3c0pUnLhM6t-99" edge="1">
          <mxGeometry relative="1" as="geometry">
            <mxPoint x="991" y="568.8587989181242" as="sourcePoint" />
            <mxPoint x="1010" y="660" as="targetPoint" />
          </mxGeometry>
        </mxCell>
        <mxCell id="yE81tgpus3c0pUnLhM6t-107" value="id" style="ellipse;whiteSpace=wrap;html=1;align=center;fontStyle=4;" parent="1" vertex="1">
          <mxGeometry x="1570" y="480" width="100" height="40" as="geometry" />
        </mxCell>
        <mxCell id="yE81tgpus3c0pUnLhM6t-108" value="" style="endArrow=none;html=1;rounded=0;" parent="1" source="yE81tgpus3c0pUnLhM6t-107" target="yE81tgpus3c0pUnLhM6t-73" edge="1">
          <mxGeometry relative="1" as="geometry">
            <mxPoint x="1450" y="580" as="sourcePoint" />
            <mxPoint x="1610" y="580" as="targetPoint" />
          </mxGeometry>
        </mxCell>
        <mxCell id="yE81tgpus3c0pUnLhM6t-110" value="perdiction for" style="ellipse;whiteSpace=wrap;html=1;align=center;" parent="1" vertex="1">
          <mxGeometry x="90" y="840" width="100" height="40" as="geometry" />
        </mxCell>
        <mxCell id="yE81tgpus3c0pUnLhM6t-111" value="" style="endArrow=none;html=1;rounded=0;" parent="1" source="yE81tgpus3c0pUnLhM6t-110" target="yE81tgpus3c0pUnLhM6t-93" edge="1">
          <mxGeometry relative="1" as="geometry">
            <mxPoint x="364" y="1197" as="sourcePoint" />
            <mxPoint x="516" y="1247" as="targetPoint" />
          </mxGeometry>
        </mxCell>
        <mxCell id="yE81tgpus3c0pUnLhM6t-113" value="&lt;div&gt;R4&lt;/div&gt;" style="text;html=1;align=center;verticalAlign=middle;whiteSpace=wrap;rounded=0;" parent="1" vertex="1">
          <mxGeometry x="773" y="681" width="60" height="30" as="geometry" />
        </mxCell>
        <mxCell id="yE81tgpus3c0pUnLhM6t-114" value="has" style="shape=rhombus;perimeter=rhombusPerimeter;whiteSpace=wrap;html=1;align=center;" parent="1" vertex="1">
          <mxGeometry x="900" y="700" width="80" height="40" as="geometry" />
        </mxCell>
        <mxCell id="yE81tgpus3c0pUnLhM6t-117" value="gives" style="shape=rhombus;double=1;perimeter=rhombusPerimeter;whiteSpace=wrap;html=1;align=center;" parent="1" vertex="1">
          <mxGeometry x="220" y="700" width="80" height="40" as="geometry" />
        </mxCell>
        <mxCell id="yE81tgpus3c0pUnLhM6t-118" value="" style="shape=link;html=1;rounded=0;" parent="1" source="yE81tgpus3c0pUnLhM6t-117" target="yE81tgpus3c0pUnLhM6t-93" edge="1">
          <mxGeometry relative="1" as="geometry">
            <mxPoint x="1120" y="870" as="sourcePoint" />
            <mxPoint x="400" y="700" as="targetPoint" />
          </mxGeometry>
        </mxCell>
        <mxCell id="yE81tgpus3c0pUnLhM6t-119" value="N" style="resizable=0;html=1;whiteSpace=wrap;align=right;verticalAlign=bottom;" parent="yE81tgpus3c0pUnLhM6t-118" connectable="0" vertex="1">
          <mxGeometry x="1" relative="1" as="geometry">
            <mxPoint x="12" as="offset" />
          </mxGeometry>
        </mxCell>
        <mxCell id="yE81tgpus3c0pUnLhM6t-120" value="" style="shape=link;html=1;rounded=0;" parent="1" source="yE81tgpus3c0pUnLhM6t-94" target="yE81tgpus3c0pUnLhM6t-93" edge="1">
          <mxGeometry relative="1" as="geometry">
            <mxPoint x="499" y="859.74" as="sourcePoint" />
            <mxPoint x="289.0000000000002" y="859.74" as="targetPoint" />
          </mxGeometry>
        </mxCell>
        <mxCell id="yE81tgpus3c0pUnLhM6t-121" value="N" style="resizable=0;html=1;whiteSpace=wrap;align=right;verticalAlign=bottom;" parent="yE81tgpus3c0pUnLhM6t-120" connectable="0" vertex="1">
          <mxGeometry x="1" relative="1" as="geometry">
            <mxPoint x="10" as="offset" />
          </mxGeometry>
        </mxCell>
        <mxCell id="yE81tgpus3c0pUnLhM6t-122" value="image" style="ellipse;whiteSpace=wrap;html=1;align=center;" parent="1" vertex="1">
          <mxGeometry x="560" y="640" width="100" height="40" as="geometry" />
        </mxCell>
        <mxCell id="yE81tgpus3c0pUnLhM6t-123" value="" style="endArrow=none;html=1;rounded=0;" parent="1" source="yE81tgpus3c0pUnLhM6t-142" target="yE81tgpus3c0pUnLhM6t-122" edge="1">
          <mxGeometry relative="1" as="geometry">
            <mxPoint x="991" y="596.6666666666667" as="sourcePoint" />
            <mxPoint x="1100" y="650" as="targetPoint" />
          </mxGeometry>
        </mxCell>
        <mxCell id="yE81tgpus3c0pUnLhM6t-124" value="" style="endArrow=none;html=1;rounded=0;" parent="1" source="yE81tgpus3c0pUnLhM6t-142" target="yE81tgpus3c0pUnLhM6t-125" edge="1">
          <mxGeometry relative="1" as="geometry">
            <mxPoint x="991" y="591.1412010818758" as="sourcePoint" />
            <mxPoint x="941" y="640" as="targetPoint" />
          </mxGeometry>
        </mxCell>
        <mxCell id="yE81tgpus3c0pUnLhM6t-129" value="&lt;div&gt;R5&lt;/div&gt;" style="text;html=1;align=center;verticalAlign=middle;whiteSpace=wrap;rounded=0;" parent="1" vertex="1">
          <mxGeometry x="1409" y="631" width="60" height="30" as="geometry" />
        </mxCell>
        <mxCell id="yE81tgpus3c0pUnLhM6t-130" value="&lt;div&gt;R5&lt;/div&gt;" style="text;html=1;align=center;verticalAlign=middle;whiteSpace=wrap;rounded=0;" parent="1" vertex="1">
          <mxGeometry x="1196" y="627" width="60" height="30" as="geometry" />
        </mxCell>
        <mxCell id="yE81tgpus3c0pUnLhM6t-131" value="&lt;div&gt;R5&lt;/div&gt;" style="text;html=1;align=center;verticalAlign=middle;whiteSpace=wrap;rounded=0;" parent="1" vertex="1">
          <mxGeometry x="1300" y="629" width="60" height="30" as="geometry" />
        </mxCell>
        <mxCell id="yE81tgpus3c0pUnLhM6t-136" value="" style="endArrow=none;html=1;rounded=0;" parent="1" source="yE81tgpus3c0pUnLhM6t-127" target="yE81tgpus3c0pUnLhM6t-142" edge="1">
          <mxGeometry relative="1" as="geometry">
            <mxPoint x="890" y="710" as="sourcePoint" />
            <mxPoint x="910.75" y="600" as="targetPoint" />
          </mxGeometry>
        </mxCell>
        <mxCell id="yE81tgpus3c0pUnLhM6t-138" value="" style="endArrow=none;html=1;rounded=0;" parent="1" source="yE81tgpus3c0pUnLhM6t-126" target="yE81tgpus3c0pUnLhM6t-142" edge="1">
          <mxGeometry relative="1" as="geometry">
            <mxPoint x="865.7247877713876" y="662.8501414857417" as="sourcePoint" />
            <mxPoint x="891" y="596.597510373444" as="targetPoint" />
          </mxGeometry>
        </mxCell>
        <mxCell id="yE81tgpus3c0pUnLhM6t-139" value="" style="endArrow=none;html=1;rounded=0;" parent="1" source="yE81tgpus3c0pUnLhM6t-134" target="yE81tgpus3c0pUnLhM6t-142" edge="1">
          <mxGeometry relative="1" as="geometry">
            <mxPoint x="875.7247877713876" y="672.8501414857417" as="sourcePoint" />
            <mxPoint x="891" y="591.0803324099722" as="targetPoint" />
          </mxGeometry>
        </mxCell>
        <mxCell id="yE81tgpus3c0pUnLhM6t-142" value="AGU" style="whiteSpace=wrap;html=1;align=center;" parent="1" vertex="1">
          <mxGeometry x="890" y="560" width="100" height="40" as="geometry" />
        </mxCell>
        <mxCell id="yE81tgpus3c0pUnLhM6t-143" value="has" style="shape=rhombus;perimeter=rhombusPerimeter;whiteSpace=wrap;html=1;align=center;" parent="1" vertex="1">
          <mxGeometry x="1240" y="560" width="80" height="40" as="geometry" />
        </mxCell>
        <mxCell id="yE81tgpus3c0pUnLhM6t-144" value="&lt;span style=&quot;border-bottom: 1px dotted&quot;&gt;timestamp&lt;/span&gt;" style="ellipse;whiteSpace=wrap;html=1;align=center;" parent="1" vertex="1">
          <mxGeometry x="100.38" y="760" width="100" height="40" as="geometry" />
        </mxCell>
        <mxCell id="yE81tgpus3c0pUnLhM6t-145" value="" style="endArrow=none;html=1;rounded=0;" parent="1" source="1O60jNJPq4XGWWf-Q1_B-216" target="yE81tgpus3c0pUnLhM6t-142" edge="1">
          <mxGeometry relative="1" as="geometry">
            <mxPoint x="800" y="600" as="sourcePoint" />
            <mxPoint x="960" y="600" as="targetPoint" />
          </mxGeometry>
        </mxCell>
        <mxCell id="yE81tgpus3c0pUnLhM6t-146" value="1" style="resizable=0;html=1;align=right;verticalAlign=bottom;" parent="yE81tgpus3c0pUnLhM6t-145" connectable="0" vertex="1">
          <mxGeometry x="1" relative="1" as="geometry">
            <mxPoint x="-10" y="3" as="offset" />
          </mxGeometry>
        </mxCell>
        <mxCell id="YGq4wxfUY90lXErYFjME-2" value="CUI" style="ellipse;whiteSpace=wrap;html=1;align=center;fontStyle=4;" parent="1" vertex="1">
          <mxGeometry x="780" y="480" width="100" height="40" as="geometry" />
        </mxCell>
        <mxCell id="YGq4wxfUY90lXErYFjME-3" value="load volume" style="ellipse;whiteSpace=wrap;html=1;align=center;" parent="1" vertex="1">
          <mxGeometry x="560" y="480" width="100" height="40" as="geometry" />
        </mxCell>
        <mxCell id="YGq4wxfUY90lXErYFjME-4" value="" style="endArrow=none;html=1;rounded=0;" parent="1" source="YGq4wxfUY90lXErYFjME-3" target="yE81tgpus3c0pUnLhM6t-142" edge="1">
          <mxGeometry relative="1" as="geometry">
            <mxPoint x="860" y="430" as="sourcePoint" />
            <mxPoint x="1020" y="430" as="targetPoint" />
          </mxGeometry>
        </mxCell>
        <mxCell id="HNTiP5AiwScMkwF9sApf-1" value="" style="endArrow=none;html=1;rounded=0;" parent="1" source="yE81tgpus3c0pUnLhM6t-114" target="yE81tgpus3c0pUnLhM6t-142" edge="1">
          <mxGeometry relative="1" as="geometry">
            <mxPoint x="680" y="630" as="sourcePoint" />
            <mxPoint x="840" y="630" as="targetPoint" />
          </mxGeometry>
        </mxCell>
        <mxCell id="HNTiP5AiwScMkwF9sApf-2" value="1" style="resizable=0;html=1;whiteSpace=wrap;align=right;verticalAlign=bottom;" parent="HNTiP5AiwScMkwF9sApf-1" connectable="0" vertex="1">
          <mxGeometry x="1" relative="1" as="geometry">
            <mxPoint x="1" y="17" as="offset" />
          </mxGeometry>
        </mxCell>
        <mxCell id="t5_EzPss6VgwO9WIC1tp-2" value="tag" style="ellipse;whiteSpace=wrap;html=1;align=center;" parent="1" vertex="1">
          <mxGeometry x="430" y="760" width="100" height="40" as="geometry" />
        </mxCell>
        <mxCell id="t5_EzPss6VgwO9WIC1tp-3" value="" style="endArrow=none;html=1;rounded=0;" parent="1" source="t5_EzPss6VgwO9WIC1tp-2" target="yE81tgpus3c0pUnLhM6t-93" edge="1">
          <mxGeometry relative="1" as="geometry">
            <mxPoint x="689" y="630" as="sourcePoint" />
            <mxPoint x="849" y="630" as="targetPoint" />
          </mxGeometry>
        </mxCell>
        <mxCell id="iorkvTQtvUkon81MWdSo-1" value="Restrictions" style="swimlane;fontStyle=0;childLayout=stackLayout;horizontal=1;startSize=26;horizontalStack=0;resizeParent=1;resizeParentMax=0;resizeLast=0;collapsible=1;marginBottom=0;align=center;fontSize=14;" parent="1" vertex="1">
          <mxGeometry x="150.75" y="200" width="279.25" height="266" as="geometry">
            <mxRectangle x="200.75" y="280" width="110" height="30" as="alternateBounds" />
          </mxGeometry>
        </mxCell>
        <mxCell id="iorkvTQtvUkon81MWdSo-2" value="R1 - Only possible values (morning, afternoon)" style="text;strokeColor=none;fillColor=none;spacingLeft=4;spacingRight=4;overflow=hidden;rotatable=0;points=[[0,0.5],[1,0.5]];portConstraint=eastwest;whiteSpace=wrap;html=1;verticalAlign=middle;" parent="iorkvTQtvUkon81MWdSo-1" vertex="1">
          <mxGeometry y="26" width="279.25" height="30" as="geometry" />
        </mxCell>
        <mxCell id="XhM0IJGveBtY8IdVU-XD-2" value="R2 - Only possible values (min, max, level)" style="text;strokeColor=none;fillColor=none;spacingLeft=4;spacingRight=4;overflow=hidden;rotatable=0;points=[[0,0.5],[1,0.5]];portConstraint=eastwest;whiteSpace=wrap;html=1;verticalAlign=middle;" parent="iorkvTQtvUkon81MWdSo-1" vertex="1">
          <mxGeometry y="56" width="279.25" height="30" as="geometry" />
        </mxCell>
        <mxCell id="iorkvTQtvUkon81MWdSo-4" value="R3 - Only possible values (temperature, gas)" style="text;strokeColor=none;fillColor=none;spacingLeft=4;spacingRight=4;overflow=hidden;rotatable=0;points=[[0,0.5],[1,0.5]];portConstraint=eastwest;whiteSpace=wrap;html=1;verticalAlign=top;" parent="iorkvTQtvUkon81MWdSo-1" vertex="1">
          <mxGeometry y="86" width="279.25" height="30" as="geometry" />
        </mxCell>
        <mxCell id="iorkvTQtvUkon81MWdSo-5" value="R4 - Only possible values (logistic, emergency)" style="text;strokeColor=none;fillColor=none;spacingLeft=4;spacingRight=4;overflow=hidden;rotatable=0;points=[[0,0.5],[1,0.5]];portConstraint=eastwest;whiteSpace=wrap;html=1;verticalAlign=middle;" parent="iorkvTQtvUkon81MWdSo-1" vertex="1">
          <mxGeometry y="116" width="279.25" height="30" as="geometry" />
        </mxCell>
        <mxCell id="iorkvTQtvUkon81MWdSo-6" value="R5 - Values between 0 and 100 (percentage)" style="text;strokeColor=none;fillColor=none;spacingLeft=4;spacingRight=4;overflow=hidden;rotatable=0;points=[[0,0.5],[1,0.5]];portConstraint=eastwest;whiteSpace=wrap;html=1;verticalAlign=middle;" parent="iorkvTQtvUkon81MWdSo-1" vertex="1">
          <mxGeometry y="146" width="279.25" height="30" as="geometry" />
        </mxCell>
        <mxCell id="iorkvTQtvUkon81MWdSo-7" value="R6 - Values between -90 and 90" style="text;strokeColor=none;fillColor=none;spacingLeft=4;spacingRight=4;overflow=hidden;rotatable=0;points=[[0,0.5],[1,0.5]];portConstraint=eastwest;whiteSpace=wrap;html=1;verticalAlign=middle;" parent="iorkvTQtvUkon81MWdSo-1" vertex="1">
          <mxGeometry y="176" width="279.25" height="30" as="geometry" />
        </mxCell>
        <mxCell id="iorkvTQtvUkon81MWdSo-8" value="R7 - Values between -180 and 180" style="text;strokeColor=none;fillColor=none;spacingLeft=4;spacingRight=4;overflow=hidden;rotatable=0;points=[[0,0.5],[1,0.5]];portConstraint=eastwest;whiteSpace=wrap;html=1;verticalAlign=middle;" parent="iorkvTQtvUkon81MWdSo-1" vertex="1">
          <mxGeometry y="206" width="279.25" height="30" as="geometry" />
        </mxCell>
        <mxCell id="iorkvTQtvUkon81MWdSo-9" value="R8 - In the form of PT1234567890123456XX" style="text;strokeColor=none;fillColor=none;spacingLeft=4;spacingRight=4;overflow=hidden;rotatable=0;points=[[0,0.5],[1,0.5]];portConstraint=eastwest;whiteSpace=wrap;html=1;verticalAlign=middle;" parent="iorkvTQtvUkon81MWdSo-1" vertex="1">
          <mxGeometry y="236" width="279.25" height="30" as="geometry" />
        </mxCell>
        <mxCell id="iorkvTQtvUkon81MWdSo-10" value="Glossary" style="swimlane;fontStyle=0;childLayout=stackLayout;horizontal=1;startSize=30;horizontalStack=0;resizeParent=1;resizeParentMax=0;resizeLast=0;collapsible=1;marginBottom=0;whiteSpace=wrap;html=1;" parent="1" vertex="1">
          <mxGeometry x="490" y="200" width="220" height="120" as="geometry" />
        </mxCell>
        <mxCell id="iorkvTQtvUkon81MWdSo-11" value="DNO - Distribution network operator" style="text;strokeColor=none;fillColor=none;align=left;verticalAlign=middle;spacingLeft=4;spacingRight=4;overflow=hidden;points=[[0,0.5],[1,0.5]];portConstraint=eastwest;rotatable=0;whiteSpace=wrap;html=1;" parent="iorkvTQtvUkon81MWdSo-10" vertex="1">
          <mxGeometry y="30" width="220" height="30" as="geometry" />
        </mxCell>
        <mxCell id="iorkvTQtvUkon81MWdSo-12" value="AGU -&amp;nbsp;&amp;nbsp;Autonomous Gas Unit" style="text;strokeColor=none;fillColor=none;align=left;verticalAlign=middle;spacingLeft=4;spacingRight=4;overflow=hidden;points=[[0,0.5],[1,0.5]];portConstraint=eastwest;rotatable=0;whiteSpace=wrap;html=1;" parent="iorkvTQtvUkon81MWdSo-10" vertex="1">
          <mxGeometry y="60" width="220" height="30" as="geometry" />
        </mxCell>
        <mxCell id="iorkvTQtvUkon81MWdSo-13" value="CUI - Code of Universal Instalation" style="text;strokeColor=none;fillColor=none;align=left;verticalAlign=middle;spacingLeft=4;spacingRight=4;overflow=hidden;points=[[0,0.5],[1,0.5]];portConstraint=eastwest;rotatable=0;whiteSpace=wrap;html=1;" parent="iorkvTQtvUkon81MWdSo-10" vertex="1">
          <mxGeometry y="90" width="220" height="30" as="geometry" />
        </mxCell>
        <mxCell id="ndjH8LerGOpHl1Gsjpk7-1" value="interacts" style="shape=rhombus;perimeter=rhombusPerimeter;whiteSpace=wrap;html=1;align=center;" parent="1" vertex="1">
          <mxGeometry x="1240" y="420" width="80" height="40" as="geometry" />
        </mxCell>
        <mxCell id="ndjH8LerGOpHl1Gsjpk7-3" value="" style="shape=link;html=1;rounded=0;" parent="1" source="ndjH8LerGOpHl1Gsjpk7-1" target="1O60jNJPq4XGWWf-Q1_B-2" edge="1">
          <mxGeometry relative="1" as="geometry">
            <mxPoint x="990" y="520" as="sourcePoint" />
            <mxPoint x="1150" y="520" as="targetPoint" />
          </mxGeometry>
        </mxCell>
        <mxCell id="ndjH8LerGOpHl1Gsjpk7-4" value="N" style="resizable=0;html=1;whiteSpace=wrap;align=right;verticalAlign=bottom;" parent="ndjH8LerGOpHl1Gsjpk7-3" connectable="0" vertex="1">
          <mxGeometry x="1" relative="1" as="geometry">
            <mxPoint x="-1" y="15" as="offset" />
          </mxGeometry>
        </mxCell>
        <mxCell id="ndjH8LerGOpHl1Gsjpk7-7" value="name" style="ellipse;whiteSpace=wrap;html=1;align=center;" parent="1" vertex="1">
          <mxGeometry x="1340" y="200" width="100" height="40" as="geometry" />
        </mxCell>
        <mxCell id="ndjH8LerGOpHl1Gsjpk7-8" value="" style="endArrow=none;html=1;rounded=0;" parent="1" source="ndjH8LerGOpHl1Gsjpk7-7" target="1O60jNJPq4XGWWf-Q1_B-2" edge="1">
          <mxGeometry relative="1" as="geometry">
            <mxPoint x="1170" y="530" as="sourcePoint" />
            <mxPoint x="1330" y="530" as="targetPoint" />
          </mxGeometry>
        </mxCell>
        <mxCell id="ndjH8LerGOpHl1Gsjpk7-9" value="region" style="ellipse;whiteSpace=wrap;html=1;align=center;" parent="1" vertex="1">
          <mxGeometry x="1570" y="640" width="100" height="40" as="geometry" />
        </mxCell>
        <mxCell id="ndjH8LerGOpHl1Gsjpk7-10" value="" style="endArrow=none;html=1;rounded=0;" parent="1" source="yE81tgpus3c0pUnLhM6t-73" target="ndjH8LerGOpHl1Gsjpk7-9" edge="1">
          <mxGeometry relative="1" as="geometry">
            <mxPoint x="950" y="530" as="sourcePoint" />
            <mxPoint x="1110" y="530" as="targetPoint" />
          </mxGeometry>
        </mxCell>
        <mxCell id="ndjH8LerGOpHl1Gsjpk7-11" value="EIC" style="ellipse;whiteSpace=wrap;html=1;align=center;" parent="1" vertex="1">
          <mxGeometry x="1000" y="480" width="100" height="40" as="geometry" />
        </mxCell>
        <mxCell id="ndjH8LerGOpHl1Gsjpk7-13" value="" style="endArrow=none;html=1;rounded=0;" parent="1" source="yE81tgpus3c0pUnLhM6t-142" target="ndjH8LerGOpHl1Gsjpk7-11" edge="1">
          <mxGeometry relative="1" as="geometry">
            <mxPoint x="870" y="530" as="sourcePoint" />
            <mxPoint x="1030" y="530" as="targetPoint" />
          </mxGeometry>
        </mxCell>
        <mxCell id="ndjH8LerGOpHl1Gsjpk7-5" value="" style="endArrow=none;html=1;rounded=0;" parent="1" source="ndjH8LerGOpHl1Gsjpk7-1" target="yE81tgpus3c0pUnLhM6t-142" edge="1">
          <mxGeometry relative="1" as="geometry">
            <mxPoint x="990" y="520" as="sourcePoint" />
            <mxPoint x="1150" y="520" as="targetPoint" />
          </mxGeometry>
        </mxCell>
        <mxCell id="ndjH8LerGOpHl1Gsjpk7-6" value="N" style="resizable=0;html=1;whiteSpace=wrap;align=right;verticalAlign=bottom;" parent="ndjH8LerGOpHl1Gsjpk7-5" connectable="0" vertex="1">
          <mxGeometry x="1" relative="1" as="geometry">
            <mxPoint x="10" y="-1" as="offset" />
          </mxGeometry>
        </mxCell>
        <mxCell id="ndjH8LerGOpHl1Gsjpk7-14" value="name" style="ellipse;whiteSpace=wrap;html=1;align=center;" parent="1" vertex="1">
          <mxGeometry x="780" y="640" width="100" height="40" as="geometry" />
        </mxCell>
        <mxCell id="ndjH8LerGOpHl1Gsjpk7-15" value="" style="endArrow=none;html=1;rounded=0;" parent="1" source="yE81tgpus3c0pUnLhM6t-142" target="ndjH8LerGOpHl1Gsjpk7-14" edge="1">
          <mxGeometry relative="1" as="geometry">
            <mxPoint x="870" y="530" as="sourcePoint" />
            <mxPoint x="1030" y="530" as="targetPoint" />
          </mxGeometry>
        </mxCell>
        <mxCell id="ndjH8LerGOpHl1Gsjpk7-16" value="correction factor" style="ellipse;whiteSpace=wrap;html=1;align=center;" parent="1" vertex="1">
          <mxGeometry x="450" y="480" width="100" height="40" as="geometry" />
        </mxCell>
        <mxCell id="yE81tgpus3c0pUnLhM6t-125" value="location" style="ellipse;whiteSpace=wrap;html=1;align=center;" parent="1" vertex="1">
          <mxGeometry x="669" y="480" width="100" height="40" as="geometry" />
        </mxCell>
        <mxCell id="ndjH8LerGOpHl1Gsjpk7-18" value="" style="endArrow=none;html=1;rounded=0;exitX=1;exitY=1;exitDx=0;exitDy=0;" parent="1" source="ndjH8LerGOpHl1Gsjpk7-16" target="yE81tgpus3c0pUnLhM6t-142" edge="1">
          <mxGeometry relative="1" as="geometry">
            <mxPoint x="530" y="530" as="sourcePoint" />
            <mxPoint x="690" y="530" as="targetPoint" />
          </mxGeometry>
        </mxCell>
        <mxCell id="ndjH8LerGOpHl1Gsjpk7-19" value="" style="endArrow=none;html=1;rounded=0;" parent="1" source="ndjH8LerGOpHl1Gsjpk7-17" target="yE81tgpus3c0pUnLhM6t-142" edge="1">
          <mxGeometry relative="1" as="geometry">
            <mxPoint x="530" y="530" as="sourcePoint" />
            <mxPoint x="690" y="530" as="targetPoint" />
          </mxGeometry>
        </mxCell>
        <mxCell id="ndjH8LerGOpHl1Gsjpk7-20" value="last fetch" style="ellipse;whiteSpace=wrap;html=1;align=center;" parent="1" vertex="1">
          <mxGeometry x="669" y="760" width="100" height="40" as="geometry" />
        </mxCell>
        <mxCell id="ndjH8LerGOpHl1Gsjpk7-21" value="" style="endArrow=none;html=1;rounded=0;" parent="1" source="ndjH8LerGOpHl1Gsjpk7-20" target="1O60jNJPq4XGWWf-Q1_B-114" edge="1">
          <mxGeometry relative="1" as="geometry">
            <mxPoint x="810" y="530" as="sourcePoint" />
            <mxPoint x="970" y="530" as="targetPoint" />
          </mxGeometry>
        </mxCell>
        <mxCell id="yE81tgpus3c0pUnLhM6t-99" value="contacts" style="ellipse;shape=doubleEllipse;margin=3;whiteSpace=wrap;html=1;align=center;" parent="1" vertex="1">
          <mxGeometry x="669" y="640" width="100" height="40" as="geometry" />
        </mxCell>
        <mxCell id="ndjH8LerGOpHl1Gsjpk7-23" value="id" style="ellipse;whiteSpace=wrap;html=1;align=center;" parent="1" vertex="1">
          <mxGeometry x="450" y="700" width="100" height="40" as="geometry" />
        </mxCell>
        <mxCell id="ndjH8LerGOpHl1Gsjpk7-24" value="" style="endArrow=none;html=1;rounded=0;" parent="1" source="ndjH8LerGOpHl1Gsjpk7-23" target="yE81tgpus3c0pUnLhM6t-99" edge="1">
          <mxGeometry relative="1" as="geometry">
            <mxPoint x="309" y="520" as="sourcePoint" />
            <mxPoint x="469" y="520" as="targetPoint" />
          </mxGeometry>
        </mxCell>
        <mxCell id="XhM0IJGveBtY8IdVU-XD-3" value="R2" style="text;html=1;align=center;verticalAlign=middle;whiteSpace=wrap;rounded=0;" parent="1" vertex="1">
          <mxGeometry x="410" y="790" width="60" height="30" as="geometry" />
        </mxCell>
        <mxCell id="LQPZ7y81GxcpWuzwd9oE-1" value="isManual" style="ellipse;whiteSpace=wrap;html=1;align=center;" parent="1" vertex="1">
          <mxGeometry x="780" y="360" width="100" height="40" as="geometry" />
        </mxCell>
        <mxCell id="LQPZ7y81GxcpWuzwd9oE-2" value="" style="endArrow=none;html=1;rounded=0;" parent="1" source="LQPZ7y81GxcpWuzwd9oE-1" target="wlgBNyQyhqbbU1J9sBqX-3" edge="1">
          <mxGeometry relative="1" as="geometry">
            <mxPoint x="740" y="420" as="sourcePoint" />
            <mxPoint x="890" y="300" as="targetPoint" />
          </mxGeometry>
        </mxCell>
        <mxCell id="JI1AjlvAtmL-jM4tkt6f-3" value="" style="endArrow=none;html=1;rounded=0;" parent="1" source="wlgBNyQyhqbbU1J9sBqX-3" target="JI1AjlvAtmL-jM4tkt6f-4" edge="1">
          <mxGeometry relative="1" as="geometry">
            <mxPoint x="940" y="280" as="sourcePoint" />
            <mxPoint x="980" y="420" as="targetPoint" />
          </mxGeometry>
        </mxCell>
        <mxCell id="JI1AjlvAtmL-jM4tkt6f-4" value="id" style="ellipse;whiteSpace=wrap;html=1;align=center;fontStyle=5" parent="1" vertex="1">
          <mxGeometry x="890" y="200" width="100" height="40" as="geometry" />
        </mxCell>
        <mxCell id="wlgBNyQyhqbbU1J9sBqX-1" value="isConfirmed" style="ellipse;whiteSpace=wrap;html=1;align=center;" parent="1" vertex="1">
          <mxGeometry x="1000" y="360" width="100" height="40" as="geometry" />
        </mxCell>
        <mxCell id="wlgBNyQyhqbbU1J9sBqX-2" value="" style="endArrow=none;html=1;rounded=0;" parent="1" source="wlgBNyQyhqbbU1J9sBqX-3" target="wlgBNyQyhqbbU1J9sBqX-1" edge="1">
          <mxGeometry relative="1" as="geometry">
            <mxPoint x="990" y="311.1111111111111" as="sourcePoint" />
            <mxPoint x="980" y="420" as="targetPoint" />
          </mxGeometry>
        </mxCell>
        <mxCell id="wlgBNyQyhqbbU1J9sBqX-3" value="Scheduled Load" style="whiteSpace=wrap;html=1;align=center;" parent="1" vertex="1">
          <mxGeometry x="890" y="280" width="100" height="40" as="geometry" />
        </mxCell>
        <mxCell id="2s_29YXp2CkGdWuxgKmN-1" value="Alert" style="whiteSpace=wrap;html=1;align=center;" vertex="1" parent="1">
          <mxGeometry x="1225" y="840" width="100" height="40" as="geometry" />
        </mxCell>
        <mxCell id="2s_29YXp2CkGdWuxgKmN-2" value="id" style="ellipse;whiteSpace=wrap;html=1;align=center;fontStyle=4;" vertex="1" parent="1">
          <mxGeometry x="1110" y="760" width="100" height="40" as="geometry" />
        </mxCell>
        <mxCell id="2s_29YXp2CkGdWuxgKmN-3" value="" style="endArrow=none;html=1;rounded=0;" edge="1" parent="1" source="2s_29YXp2CkGdWuxgKmN-2" target="2s_29YXp2CkGdWuxgKmN-1">
          <mxGeometry relative="1" as="geometry">
            <mxPoint x="551.5" y="840" as="sourcePoint" />
            <mxPoint x="711.5" y="840" as="targetPoint" />
          </mxGeometry>
        </mxCell>
        <mxCell id="2s_29YXp2CkGdWuxgKmN-4" value="timestamp" style="ellipse;whiteSpace=wrap;html=1;align=center;" vertex="1" parent="1">
          <mxGeometry x="1440" y="760" width="100" height="40" as="geometry" />
        </mxCell>
        <mxCell id="2s_29YXp2CkGdWuxgKmN-5" value="title" style="ellipse;whiteSpace=wrap;html=1;align=center;" vertex="1" parent="1">
          <mxGeometry x="1330" y="760" width="100" height="40" as="geometry" />
        </mxCell>
        <mxCell id="2s_29YXp2CkGdWuxgKmN-7" value="isResolved" style="ellipse;whiteSpace=wrap;html=1;align=center;" vertex="1" parent="1">
          <mxGeometry x="1560" y="840" width="100" height="40" as="geometry" />
        </mxCell>
        <mxCell id="2s_29YXp2CkGdWuxgKmN-9" value="" style="endArrow=none;html=1;rounded=0;" edge="1" parent="1" source="2s_29YXp2CkGdWuxgKmN-4" target="2s_29YXp2CkGdWuxgKmN-1">
          <mxGeometry relative="1" as="geometry">
            <mxPoint x="551.5" y="840" as="sourcePoint" />
            <mxPoint x="711.5" y="840" as="targetPoint" />
          </mxGeometry>
        </mxCell>
        <mxCell id="2s_29YXp2CkGdWuxgKmN-11" value="" style="endArrow=none;html=1;rounded=0;" edge="1" parent="1" source="2s_29YXp2CkGdWuxgKmN-5" target="2s_29YXp2CkGdWuxgKmN-1">
          <mxGeometry relative="1" as="geometry">
            <mxPoint x="908.5" y="997" as="sourcePoint" />
            <mxPoint x="968.5" y="1033" as="targetPoint" />
          </mxGeometry>
        </mxCell>
        <mxCell id="2s_29YXp2CkGdWuxgKmN-12" value="" style="endArrow=none;html=1;rounded=0;" edge="1" parent="1" source="2s_29YXp2CkGdWuxgKmN-1" target="2s_29YXp2CkGdWuxgKmN-6">
          <mxGeometry relative="1" as="geometry">
            <mxPoint x="801.5" y="992" as="sourcePoint" />
            <mxPoint x="951.5" y="1038" as="targetPoint" />
          </mxGeometry>
        </mxCell>
        <mxCell id="2s_29YXp2CkGdWuxgKmN-13" value="" style="endArrow=none;html=1;rounded=0;" edge="1" parent="1" source="2s_29YXp2CkGdWuxgKmN-1" target="2s_29YXp2CkGdWuxgKmN-7">
          <mxGeometry relative="1" as="geometry">
            <mxPoint x="1037.5" y="1033" as="sourcePoint" />
            <mxPoint x="1102.5" y="996" as="targetPoint" />
          </mxGeometry>
        </mxCell>
        <mxCell id="yE81tgpus3c0pUnLhM6t-126" value="critical level" style="ellipse;whiteSpace=wrap;html=1;align=center;" parent="1" vertex="1">
          <mxGeometry x="1220" y="640" width="100" height="40" as="geometry" />
        </mxCell>
        <mxCell id="2s_29YXp2CkGdWuxgKmN-15" value="has" style="shape=rhombus;perimeter=rhombusPerimeter;whiteSpace=wrap;html=1;align=center;" vertex="1" parent="1">
          <mxGeometry x="1235" y="700" width="80" height="40" as="geometry" />
        </mxCell>
        <mxCell id="2s_29YXp2CkGdWuxgKmN-16" value="" style="shape=link;html=1;rounded=0;" edge="1" parent="1" source="2s_29YXp2CkGdWuxgKmN-15" target="2s_29YXp2CkGdWuxgKmN-1">
          <mxGeometry relative="1" as="geometry">
            <mxPoint x="1360" y="620" as="sourcePoint" />
            <mxPoint x="1520" y="620" as="targetPoint" />
          </mxGeometry>
        </mxCell>
        <mxCell id="2s_29YXp2CkGdWuxgKmN-17" value="N" style="resizable=0;html=1;whiteSpace=wrap;align=right;verticalAlign=bottom;" connectable="0" vertex="1" parent="2s_29YXp2CkGdWuxgKmN-16">
          <mxGeometry x="1" relative="1" as="geometry" />
        </mxCell>
        <mxCell id="2s_29YXp2CkGdWuxgKmN-18" value="" style="endArrow=none;html=1;rounded=0;" edge="1" parent="1" source="2s_29YXp2CkGdWuxgKmN-15" target="yE81tgpus3c0pUnLhM6t-142">
          <mxGeometry relative="1" as="geometry">
            <mxPoint x="1360" y="620" as="sourcePoint" />
            <mxPoint x="1520" y="620" as="targetPoint" />
          </mxGeometry>
        </mxCell>
        <mxCell id="2s_29YXp2CkGdWuxgKmN-19" value="1" style="resizable=0;html=1;whiteSpace=wrap;align=right;verticalAlign=bottom;" connectable="0" vertex="1" parent="2s_29YXp2CkGdWuxgKmN-18">
          <mxGeometry x="1" relative="1" as="geometry">
            <mxPoint x="5" y="15" as="offset" />
          </mxGeometry>
        </mxCell>
        <mxCell id="yE81tgpus3c0pUnLhM6t-134" value="min level" style="ellipse;whiteSpace=wrap;html=1;align=center;" parent="1" vertex="1">
          <mxGeometry x="1440" y="640" width="100" height="40" as="geometry" />
        </mxCell>
        <mxCell id="ndjH8LerGOpHl1Gsjpk7-17" value="isActive" style="ellipse;whiteSpace=wrap;html=1;align=center;" parent="1" vertex="1">
          <mxGeometry x="1220" y="480" width="100" height="40" as="geometry" />
        </mxCell>
        <mxCell id="2s_29YXp2CkGdWuxgKmN-6" value="message" style="ellipse;whiteSpace=wrap;html=1;align=center;" vertex="1" parent="1">
          <mxGeometry x="1550" y="760" width="100" height="40" as="geometry" />
        </mxCell>
        <mxCell id="yE81tgpus3c0pUnLhM6t-127" value="max level" style="ellipse;whiteSpace=wrap;html=1;align=center;" parent="1" vertex="1">
          <mxGeometry x="1330" y="640" width="100" height="40" as="geometry" />
        </mxCell>
        <mxCell id="qdyc4S0fMENOsHEMeMi7-5" value="&lt;div&gt;R6&lt;/div&gt;" style="text;html=1;align=center;verticalAlign=middle;whiteSpace=wrap;rounded=0;" vertex="1" parent="1">
          <mxGeometry x="609" y="450" width="60" height="30" as="geometry" />
        </mxCell>
        <mxCell id="qdyc4S0fMENOsHEMeMi7-6" value="&lt;div&gt;R7&lt;/div&gt;" style="text;html=1;align=center;verticalAlign=middle;whiteSpace=wrap;rounded=0;" vertex="1" parent="1">
          <mxGeometry x="680" y="452" width="60" height="30" as="geometry" />
        </mxCell>
      </root>
    </mxGraphModel>
  </diagram>
  <diagram id="h32_4PtfR4IMGRwQZQ40" name="EA WO atributes">
    <mxGraphModel dx="356" dy="685" grid="1" gridSize="10" guides="1" tooltips="1" connect="1" arrows="1" fold="1" page="1" pageScale="1" pageWidth="827" pageHeight="1169" math="0" shadow="0">
      <root>
        <mxCell id="0" />
        <mxCell id="1" parent="0" />
        <mxCell id="Ttd3rtLhqqvpu-t-shsi-2" value="Transport Company" style="whiteSpace=wrap;html=1;align=center;" parent="1" vertex="1">
          <mxGeometry x="1500" y="400" width="100" height="40" as="geometry" />
        </mxCell>
        <mxCell id="Ttd3rtLhqqvpu-t-shsi-4" value="Scheduled&amp;nbsp;&lt;span style=&quot;background-color: initial;&quot;&gt;Load&lt;/span&gt;" style="whiteSpace=wrap;html=1;align=center;" parent="1" vertex="1">
          <mxGeometry x="1200" y="400" width="100" height="40" as="geometry" />
        </mxCell>
        <mxCell id="Ttd3rtLhqqvpu-t-shsi-20" value="" style="endArrow=none;html=1;rounded=0;" parent="1" source="Ttd3rtLhqqvpu-t-shsi-87" target="Ttd3rtLhqqvpu-t-shsi-4" edge="1">
          <mxGeometry relative="1" as="geometry">
            <mxPoint x="1250" y="480" as="sourcePoint" />
            <mxPoint x="1410" y="490" as="targetPoint" />
          </mxGeometry>
        </mxCell>
        <mxCell id="Ttd3rtLhqqvpu-t-shsi-21" value="N" style="resizable=0;html=1;whiteSpace=wrap;align=right;verticalAlign=bottom;" parent="Ttd3rtLhqqvpu-t-shsi-20" connectable="0" vertex="1">
          <mxGeometry x="1" relative="1" as="geometry">
            <mxPoint x="12" y="16" as="offset" />
          </mxGeometry>
        </mxCell>
        <mxCell id="Ttd3rtLhqqvpu-t-shsi-30" value="Provider" style="whiteSpace=wrap;html=1;align=center;" parent="1" vertex="1">
          <mxGeometry x="1200" y="720" width="100" height="40" as="geometry" />
        </mxCell>
        <mxCell id="Ttd3rtLhqqvpu-t-shsi-44" value="" style="endArrow=none;html=1;rounded=0;" parent="1" source="Ttd3rtLhqqvpu-t-shsi-118" target="Ttd3rtLhqqvpu-t-shsi-48" edge="1">
          <mxGeometry relative="1" as="geometry">
            <mxPoint x="950" y="420" as="sourcePoint" />
            <mxPoint x="1560.8571428571427" y="570" as="targetPoint" />
          </mxGeometry>
        </mxCell>
        <mxCell id="Ttd3rtLhqqvpu-t-shsi-45" value="1" style="resizable=0;html=1;whiteSpace=wrap;align=right;verticalAlign=bottom;" parent="Ttd3rtLhqqvpu-t-shsi-44" connectable="0" vertex="1">
          <mxGeometry x="1" relative="1" as="geometry">
            <mxPoint x="2" y="16" as="offset" />
          </mxGeometry>
        </mxCell>
        <mxCell id="Ttd3rtLhqqvpu-t-shsi-46" value="" style="endArrow=none;html=1;rounded=0;" parent="1" source="Ttd3rtLhqqvpu-t-shsi-117" target="Ttd3rtLhqqvpu-t-shsi-30" edge="1">
          <mxGeometry relative="1" as="geometry">
            <mxPoint x="1319.310344827586" y="920.344827586207" as="sourcePoint" />
            <mxPoint x="1630" y="710" as="targetPoint" />
          </mxGeometry>
        </mxCell>
        <mxCell id="Ttd3rtLhqqvpu-t-shsi-47" value="N" style="resizable=0;html=1;align=right;verticalAlign=bottom;" parent="Ttd3rtLhqqvpu-t-shsi-46" connectable="0" vertex="1">
          <mxGeometry x="1" relative="1" as="geometry">
            <mxPoint x="11" y="3" as="offset" />
          </mxGeometry>
        </mxCell>
        <mxCell id="Ttd3rtLhqqvpu-t-shsi-48" value="Tanks" style="shape=ext;margin=3;double=1;whiteSpace=wrap;html=1;align=center;" parent="1" vertex="1">
          <mxGeometry x="900" y="560" width="100" height="40" as="geometry" />
        </mxCell>
        <mxCell id="Ttd3rtLhqqvpu-t-shsi-55" value="has" style="shape=rhombus;double=1;perimeter=rhombusPerimeter;whiteSpace=wrap;html=1;align=center;" parent="1" vertex="1">
          <mxGeometry x="1060" y="560" width="80" height="40" as="geometry" />
        </mxCell>
        <mxCell id="Ttd3rtLhqqvpu-t-shsi-56" value="" style="shape=link;html=1;rounded=0;" parent="1" source="Ttd3rtLhqqvpu-t-shsi-55" target="Ttd3rtLhqqvpu-t-shsi-48" edge="1">
          <mxGeometry relative="1" as="geometry">
            <mxPoint x="640" y="590" as="sourcePoint" />
            <mxPoint x="800" y="590" as="targetPoint" />
          </mxGeometry>
        </mxCell>
        <mxCell id="Ttd3rtLhqqvpu-t-shsi-57" value="N" style="resizable=0;html=1;align=right;verticalAlign=bottom;" parent="Ttd3rtLhqqvpu-t-shsi-56" connectable="0" vertex="1">
          <mxGeometry x="1" relative="1" as="geometry">
            <mxPoint x="11" y="1" as="offset" />
          </mxGeometry>
        </mxCell>
        <mxCell id="Ttd3rtLhqqvpu-t-shsi-73" value="Glossary" style="swimlane;fontStyle=0;childLayout=stackLayout;horizontal=1;startSize=30;horizontalStack=0;resizeParent=1;resizeParentMax=0;resizeLast=0;collapsible=1;marginBottom=0;whiteSpace=wrap;html=1;" parent="1" vertex="1">
          <mxGeometry x="900" y="400" width="240" height="90" as="geometry" />
        </mxCell>
        <mxCell id="Ttd3rtLhqqvpu-t-shsi-74" value="DNO - Distribution network operator" style="text;strokeColor=none;fillColor=none;align=left;verticalAlign=middle;spacingLeft=4;spacingRight=4;overflow=hidden;points=[[0,0.5],[1,0.5]];portConstraint=eastwest;rotatable=0;whiteSpace=wrap;html=1;" parent="Ttd3rtLhqqvpu-t-shsi-73" vertex="1">
          <mxGeometry y="30" width="240" height="30" as="geometry" />
        </mxCell>
        <mxCell id="Ttd3rtLhqqvpu-t-shsi-75" value="AGU -&amp;nbsp;&amp;nbsp;Autonomous Gas Unit" style="text;strokeColor=none;fillColor=none;align=left;verticalAlign=middle;spacingLeft=4;spacingRight=4;overflow=hidden;points=[[0,0.5],[1,0.5]];portConstraint=eastwest;rotatable=0;whiteSpace=wrap;html=1;" parent="Ttd3rtLhqqvpu-t-shsi-73" vertex="1">
          <mxGeometry y="60" width="240" height="30" as="geometry" />
        </mxCell>
        <mxCell id="Ttd3rtLhqqvpu-t-shsi-78" value="DNO" style="whiteSpace=wrap;html=1;align=center;" parent="1" vertex="1">
          <mxGeometry x="1500" y="560" width="100" height="40" as="geometry" />
        </mxCell>
        <mxCell id="Ttd3rtLhqqvpu-t-shsi-87" value="charge" style="shape=rhombus;perimeter=rhombusPerimeter;whiteSpace=wrap;html=1;align=center;" parent="1" vertex="1">
          <mxGeometry x="1210" y="480" width="80" height="40" as="geometry" />
        </mxCell>
        <mxCell id="Ttd3rtLhqqvpu-t-shsi-88" value="" style="endArrow=none;html=1;rounded=0;" parent="1" source="Ttd3rtLhqqvpu-t-shsi-87" target="Ttd3rtLhqqvpu-t-shsi-138" edge="1">
          <mxGeometry relative="1" as="geometry">
            <mxPoint x="1250" y="430" as="sourcePoint" />
            <mxPoint x="1250.857142857143" y="560" as="targetPoint" />
          </mxGeometry>
        </mxCell>
        <mxCell id="Ttd3rtLhqqvpu-t-shsi-89" value="1" style="resizable=0;html=1;whiteSpace=wrap;align=right;verticalAlign=bottom;" parent="Ttd3rtLhqqvpu-t-shsi-88" connectable="0" vertex="1">
          <mxGeometry x="1" relative="1" as="geometry">
            <mxPoint x="1" y="2" as="offset" />
          </mxGeometry>
        </mxCell>
        <mxCell id="Ttd3rtLhqqvpu-t-shsi-90" value="" style="shape=link;html=1;rounded=0;" parent="1" source="Ttd3rtLhqqvpu-t-shsi-139" target="Ttd3rtLhqqvpu-t-shsi-138" edge="1">
          <mxGeometry relative="1" as="geometry">
            <mxPoint x="1520" y="580" as="sourcePoint" />
            <mxPoint x="1301" y="580" as="targetPoint" />
          </mxGeometry>
        </mxCell>
        <mxCell id="Ttd3rtLhqqvpu-t-shsi-91" value="N" style="resizable=0;html=1;whiteSpace=wrap;align=right;verticalAlign=bottom;" parent="Ttd3rtLhqqvpu-t-shsi-90" connectable="0" vertex="1">
          <mxGeometry x="1" relative="1" as="geometry">
            <mxPoint x="12" y="2" as="offset" />
          </mxGeometry>
        </mxCell>
        <mxCell id="Ttd3rtLhqqvpu-t-shsi-92" value="" style="endArrow=none;html=1;rounded=0;" parent="1" source="Ttd3rtLhqqvpu-t-shsi-139" target="Ttd3rtLhqqvpu-t-shsi-78" edge="1">
          <mxGeometry relative="1" as="geometry">
            <mxPoint x="1600" y="580" as="sourcePoint" />
            <mxPoint x="1410" y="570" as="targetPoint" />
          </mxGeometry>
        </mxCell>
        <mxCell id="Ttd3rtLhqqvpu-t-shsi-93" value="1" style="resizable=0;html=1;whiteSpace=wrap;align=right;verticalAlign=bottom;" parent="Ttd3rtLhqqvpu-t-shsi-92" connectable="0" vertex="1">
          <mxGeometry x="1" relative="1" as="geometry">
            <mxPoint x="2" y="3" as="offset" />
          </mxGeometry>
        </mxCell>
        <mxCell id="Ttd3rtLhqqvpu-t-shsi-96" value="Measure" style="shape=ext;margin=3;double=1;whiteSpace=wrap;html=1;align=center;" parent="1" vertex="1">
          <mxGeometry x="900" y="720" width="100" height="40" as="geometry" />
        </mxCell>
        <mxCell id="Ttd3rtLhqqvpu-t-shsi-97" value="has" style="shape=rhombus;double=1;perimeter=rhombusPerimeter;whiteSpace=wrap;html=1;align=center;" parent="1" vertex="1">
          <mxGeometry x="1060" y="720" width="80" height="40" as="geometry" />
        </mxCell>
        <mxCell id="Ttd3rtLhqqvpu-t-shsi-98" value="" style="endArrow=none;html=1;rounded=0;" parent="1" source="Ttd3rtLhqqvpu-t-shsi-97" target="Ttd3rtLhqqvpu-t-shsi-30" edge="1">
          <mxGeometry relative="1" as="geometry">
            <mxPoint x="1280" y="760" as="sourcePoint" />
            <mxPoint x="1110" y="760" as="targetPoint" />
          </mxGeometry>
        </mxCell>
        <mxCell id="Ttd3rtLhqqvpu-t-shsi-99" value="1" style="resizable=0;html=1;whiteSpace=wrap;align=right;verticalAlign=bottom;" parent="Ttd3rtLhqqvpu-t-shsi-98" connectable="0" vertex="1">
          <mxGeometry x="1" relative="1" as="geometry">
            <mxPoint as="offset" />
          </mxGeometry>
        </mxCell>
        <mxCell id="Ttd3rtLhqqvpu-t-shsi-117" value="has" style="shape=rhombus;perimeter=rhombusPerimeter;whiteSpace=wrap;html=1;align=center;" parent="1" vertex="1">
          <mxGeometry x="1210" y="640" width="80" height="40" as="geometry" />
        </mxCell>
        <mxCell id="Ttd3rtLhqqvpu-t-shsi-118" value="gives" style="shape=rhombus;double=1;perimeter=rhombusPerimeter;whiteSpace=wrap;html=1;align=center;" parent="1" vertex="1">
          <mxGeometry x="910" y="640" width="80" height="40" as="geometry" />
        </mxCell>
        <mxCell id="Ttd3rtLhqqvpu-t-shsi-119" value="" style="shape=link;html=1;rounded=0;" parent="1" source="Ttd3rtLhqqvpu-t-shsi-118" target="Ttd3rtLhqqvpu-t-shsi-96" edge="1">
          <mxGeometry relative="1" as="geometry">
            <mxPoint x="1830" y="810" as="sourcePoint" />
            <mxPoint x="1110" y="640" as="targetPoint" />
          </mxGeometry>
        </mxCell>
        <mxCell id="Ttd3rtLhqqvpu-t-shsi-120" value="N" style="resizable=0;html=1;whiteSpace=wrap;align=right;verticalAlign=bottom;" parent="Ttd3rtLhqqvpu-t-shsi-119" connectable="0" vertex="1">
          <mxGeometry x="1" relative="1" as="geometry">
            <mxPoint x="14" y="3" as="offset" />
          </mxGeometry>
        </mxCell>
        <mxCell id="Ttd3rtLhqqvpu-t-shsi-121" value="" style="shape=link;html=1;rounded=0;" parent="1" source="Ttd3rtLhqqvpu-t-shsi-97" target="Ttd3rtLhqqvpu-t-shsi-96" edge="1">
          <mxGeometry relative="1" as="geometry">
            <mxPoint x="1060" y="739.78" as="sourcePoint" />
            <mxPoint x="1000" y="739.78" as="targetPoint" />
          </mxGeometry>
        </mxCell>
        <mxCell id="Ttd3rtLhqqvpu-t-shsi-122" value="N" style="resizable=0;html=1;whiteSpace=wrap;align=right;verticalAlign=bottom;" parent="Ttd3rtLhqqvpu-t-shsi-121" connectable="0" vertex="1">
          <mxGeometry x="1" relative="1" as="geometry">
            <mxPoint x="12" as="offset" />
          </mxGeometry>
        </mxCell>
        <mxCell id="Ttd3rtLhqqvpu-t-shsi-138" value="AGU" style="whiteSpace=wrap;html=1;align=center;" parent="1" vertex="1">
          <mxGeometry x="1200" y="560" width="100" height="40" as="geometry" />
        </mxCell>
        <mxCell id="Ttd3rtLhqqvpu-t-shsi-139" value="has" style="shape=rhombus;perimeter=rhombusPerimeter;whiteSpace=wrap;html=1;align=center;" parent="1" vertex="1">
          <mxGeometry x="1360" y="560" width="80" height="40" as="geometry" />
        </mxCell>
        <mxCell id="Ttd3rtLhqqvpu-t-shsi-141" value="" style="endArrow=none;html=1;rounded=0;" parent="1" source="Ttd3rtLhqqvpu-t-shsi-55" target="Ttd3rtLhqqvpu-t-shsi-138" edge="1">
          <mxGeometry relative="1" as="geometry">
            <mxPoint x="1110" y="600" as="sourcePoint" />
            <mxPoint x="1270" y="600" as="targetPoint" />
          </mxGeometry>
        </mxCell>
        <mxCell id="Ttd3rtLhqqvpu-t-shsi-142" value="1" style="resizable=0;html=1;align=right;verticalAlign=bottom;" parent="Ttd3rtLhqqvpu-t-shsi-141" connectable="0" vertex="1">
          <mxGeometry x="1" relative="1" as="geometry">
            <mxPoint x="1" y="3" as="offset" />
          </mxGeometry>
        </mxCell>
        <mxCell id="Ttd3rtLhqqvpu-t-shsi-146" value="" style="endArrow=none;html=1;rounded=0;" parent="1" source="Ttd3rtLhqqvpu-t-shsi-117" target="Ttd3rtLhqqvpu-t-shsi-138" edge="1">
          <mxGeometry relative="1" as="geometry">
            <mxPoint x="990" y="630" as="sourcePoint" />
            <mxPoint x="1150" y="630" as="targetPoint" />
          </mxGeometry>
        </mxCell>
        <mxCell id="Ttd3rtLhqqvpu-t-shsi-147" value="1" style="resizable=0;html=1;whiteSpace=wrap;align=right;verticalAlign=bottom;" parent="Ttd3rtLhqqvpu-t-shsi-146" connectable="0" vertex="1">
          <mxGeometry x="1" relative="1" as="geometry">
            <mxPoint x="1" y="17" as="offset" />
          </mxGeometry>
        </mxCell>
        <mxCell id="lIPNHS3Zkbv2__H_T9aa-1" value="interacts" style="shape=rhombus;perimeter=rhombusPerimeter;whiteSpace=wrap;html=1;align=center;" parent="1" vertex="1">
          <mxGeometry x="1360" y="480" width="80" height="40" as="geometry" />
        </mxCell>
        <mxCell id="lIPNHS3Zkbv2__H_T9aa-3" value="" style="shape=link;html=1;rounded=0;" parent="1" source="lIPNHS3Zkbv2__H_T9aa-1" target="Ttd3rtLhqqvpu-t-shsi-2" edge="1">
          <mxGeometry relative="1" as="geometry">
            <mxPoint x="1160" y="420" as="sourcePoint" />
            <mxPoint x="1320" y="420" as="targetPoint" />
          </mxGeometry>
        </mxCell>
        <mxCell id="lIPNHS3Zkbv2__H_T9aa-4" value="N" style="resizable=0;html=1;whiteSpace=wrap;align=right;verticalAlign=bottom;" parent="lIPNHS3Zkbv2__H_T9aa-3" connectable="0" vertex="1">
          <mxGeometry x="1" relative="1" as="geometry">
            <mxPoint x="-13" as="offset" />
          </mxGeometry>
        </mxCell>
        <mxCell id="lIPNHS3Zkbv2__H_T9aa-7" value="" style="endArrow=none;html=1;rounded=0;" parent="1" source="lIPNHS3Zkbv2__H_T9aa-1" target="Ttd3rtLhqqvpu-t-shsi-138" edge="1">
          <mxGeometry relative="1" as="geometry">
            <mxPoint x="1160" y="420" as="sourcePoint" />
            <mxPoint x="1320" y="420" as="targetPoint" />
          </mxGeometry>
        </mxCell>
        <mxCell id="lIPNHS3Zkbv2__H_T9aa-8" value="N" style="resizable=0;html=1;whiteSpace=wrap;align=right;verticalAlign=bottom;" parent="lIPNHS3Zkbv2__H_T9aa-7" connectable="0" vertex="1">
          <mxGeometry x="1" relative="1" as="geometry" />
        </mxCell>
        <mxCell id="Sm3k7b8vR-ZKvgaQ2EHC-1" value="Alert" style="whiteSpace=wrap;html=1;align=center;" vertex="1" parent="1">
          <mxGeometry x="1500" y="720" width="100" height="40" as="geometry" />
        </mxCell>
        <mxCell id="Sm3k7b8vR-ZKvgaQ2EHC-2" value="has" style="shape=rhombus;perimeter=rhombusPerimeter;whiteSpace=wrap;html=1;align=center;" vertex="1" parent="1">
          <mxGeometry x="1360" y="640" width="80" height="40" as="geometry" />
        </mxCell>
        <mxCell id="Sm3k7b8vR-ZKvgaQ2EHC-3" value="" style="shape=link;html=1;rounded=0;" edge="1" parent="1" source="Sm3k7b8vR-ZKvgaQ2EHC-2" target="Sm3k7b8vR-ZKvgaQ2EHC-1">
          <mxGeometry relative="1" as="geometry">
            <mxPoint x="1360" y="620" as="sourcePoint" />
            <mxPoint x="1520" y="620" as="targetPoint" />
          </mxGeometry>
        </mxCell>
        <mxCell id="Sm3k7b8vR-ZKvgaQ2EHC-4" value="N" style="resizable=0;html=1;whiteSpace=wrap;align=right;verticalAlign=bottom;" connectable="0" vertex="1" parent="Sm3k7b8vR-ZKvgaQ2EHC-3">
          <mxGeometry x="1" relative="1" as="geometry">
            <mxPoint x="-13" y="10" as="offset" />
          </mxGeometry>
        </mxCell>
        <mxCell id="Sm3k7b8vR-ZKvgaQ2EHC-5" value="" style="endArrow=none;html=1;rounded=0;" edge="1" parent="1" source="Sm3k7b8vR-ZKvgaQ2EHC-2" target="Ttd3rtLhqqvpu-t-shsi-138">
          <mxGeometry relative="1" as="geometry">
            <mxPoint x="1360" y="620" as="sourcePoint" />
            <mxPoint x="990" y="599" as="targetPoint" />
          </mxGeometry>
        </mxCell>
        <mxCell id="Sm3k7b8vR-ZKvgaQ2EHC-6" value="1" style="resizable=0;html=1;whiteSpace=wrap;align=right;verticalAlign=bottom;" connectable="0" vertex="1" parent="Sm3k7b8vR-ZKvgaQ2EHC-5">
          <mxGeometry x="1" relative="1" as="geometry">
            <mxPoint x="3" y="17" as="offset" />
          </mxGeometry>
        </mxCell>
      </root>
    </mxGraphModel>
  </diagram>
  <diagram id="uGfOi9KcLwQZtjd6zGAU" name="Sys-arch">
    <mxGraphModel dx="1420" dy="822" grid="1" gridSize="10" guides="1" tooltips="1" connect="1" arrows="1" fold="1" page="1" pageScale="1" pageWidth="827" pageHeight="1169" math="0" shadow="0">
      <root>
        <mxCell id="0" />
        <mxCell id="1" parent="0" />
        <mxCell id="24GAoB1H9NzQBnd6KgUG-1" value="Actor" style="shape=umlActor;verticalLabelPosition=bottom;verticalAlign=top;html=1;outlineConnect=0;" parent="1" vertex="1">
          <mxGeometry x="130" y="385" width="30" height="60" as="geometry" />
        </mxCell>
        <mxCell id="vNDBK76pSApHjMuJZPkI-8" value="" style="endArrow=classic;startArrow=classic;html=1;rounded=0;exitX=0.997;exitY=0.424;exitDx=0;exitDy=0;exitPerimeter=0;" parent="1" source="vNDBK76pSApHjMuJZPkI-2" target="vNDBK76pSApHjMuJZPkI-13" edge="1">
          <mxGeometry width="50" height="50" relative="1" as="geometry">
            <mxPoint x="362" y="390" as="sourcePoint" />
            <mxPoint x="460" y="390" as="targetPoint" />
          </mxGeometry>
        </mxCell>
        <mxCell id="vNDBK76pSApHjMuJZPkI-9" value="" style="endArrow=classic;startArrow=classic;html=1;rounded=0;exitX=-0.013;exitY=0.427;exitDx=0;exitDy=0;exitPerimeter=0;" parent="1" source="vNDBK76pSApHjMuJZPkI-2" target="24GAoB1H9NzQBnd6KgUG-1" edge="1">
          <mxGeometry width="50" height="50" relative="1" as="geometry">
            <mxPoint x="370" y="355" as="sourcePoint" />
            <mxPoint x="450" y="355" as="targetPoint" />
          </mxGeometry>
        </mxCell>
        <mxCell id="vNDBK76pSApHjMuJZPkI-2" value="" style="rounded=0;whiteSpace=wrap;html=1;container=0;" parent="1" vertex="1">
          <mxGeometry x="240" y="190" width="120" height="530" as="geometry" />
        </mxCell>
        <mxCell id="vNDBK76pSApHjMuJZPkI-3" value="Controller" style="text;html=1;align=center;verticalAlign=middle;whiteSpace=wrap;rounded=0;container=0;" parent="1" vertex="1">
          <mxGeometry x="270" y="200" width="60" height="30" as="geometry" />
        </mxCell>
        <mxCell id="vNDBK76pSApHjMuJZPkI-4" value="DNO Controller" style="rounded=0;whiteSpace=wrap;html=1;container=0;" parent="1" vertex="1">
          <mxGeometry x="250" y="240" width="100" height="60" as="geometry" />
        </mxCell>
        <mxCell id="vNDBK76pSApHjMuJZPkI-5" value="Trnsport company Controller" style="rounded=0;whiteSpace=wrap;html=1;container=0;" parent="1" vertex="1">
          <mxGeometry x="250" y="310" width="100" height="60" as="geometry" />
        </mxCell>
        <mxCell id="vNDBK76pSApHjMuJZPkI-6" value="" style="rounded=0;whiteSpace=wrap;html=1;container=0;" parent="1" vertex="1">
          <mxGeometry x="250" y="520" width="100" height="190" as="geometry" />
        </mxCell>
        <mxCell id="vNDBK76pSApHjMuJZPkI-10" value="Contact Controller" style="rounded=0;whiteSpace=wrap;html=1;" parent="1" vertex="1">
          <mxGeometry x="260.5" y="570" width="79" height="60" as="geometry" />
        </mxCell>
        <mxCell id="vNDBK76pSApHjMuJZPkI-11" value="Tank Controller" style="rounded=0;whiteSpace=wrap;html=1;" parent="1" vertex="1">
          <mxGeometry x="260.5" y="640" width="79" height="60" as="geometry" />
        </mxCell>
        <mxCell id="vNDBK76pSApHjMuJZPkI-12" value="AGU Controller" style="text;html=1;align=center;verticalAlign=middle;whiteSpace=wrap;rounded=0;" parent="1" vertex="1">
          <mxGeometry x="270" y="530" width="60" height="30" as="geometry" />
        </mxCell>
        <mxCell id="vNDBK76pSApHjMuJZPkI-13" value="" style="rounded=0;whiteSpace=wrap;html=1;" parent="1" vertex="1">
          <mxGeometry x="440" y="190" width="220" height="450" as="geometry" />
        </mxCell>
        <mxCell id="vNDBK76pSApHjMuJZPkI-14" value="AGU Service" style="rounded=0;whiteSpace=wrap;html=1;" parent="1" vertex="1">
          <mxGeometry x="450" y="390" width="200" height="40" as="geometry" />
        </mxCell>
        <mxCell id="vNDBK76pSApHjMuJZPkI-15" value="DNO Service" style="rounded=0;whiteSpace=wrap;html=1;" parent="1" vertex="1">
          <mxGeometry x="450" y="240" width="200" height="40" as="geometry" />
        </mxCell>
        <mxCell id="vNDBK76pSApHjMuJZPkI-17" value="Transport Company Service" style="rounded=0;whiteSpace=wrap;html=1;" parent="1" vertex="1">
          <mxGeometry x="450" y="290" width="200" height="40" as="geometry" />
        </mxCell>
        <mxCell id="vNDBK76pSApHjMuJZPkI-18" value="Chron Service" style="rounded=0;whiteSpace=wrap;html=1;" parent="1" vertex="1">
          <mxGeometry x="450" y="540" width="200" height="40" as="geometry" />
        </mxCell>
        <mxCell id="vNDBK76pSApHjMuJZPkI-16" value="Fetch Service" style="rounded=0;whiteSpace=wrap;html=1;" parent="1" vertex="1">
          <mxGeometry x="450" y="590" width="200" height="40" as="geometry" />
        </mxCell>
        <mxCell id="vNDBK76pSApHjMuJZPkI-20" value="Service" style="text;html=1;align=center;verticalAlign=middle;whiteSpace=wrap;rounded=0;" parent="1" vertex="1">
          <mxGeometry x="520" y="200" width="60" height="30" as="geometry" />
        </mxCell>
        <mxCell id="vNDBK76pSApHjMuJZPkI-21" value="" style="rounded=0;whiteSpace=wrap;html=1;" parent="1" vertex="1">
          <mxGeometry x="740" y="190" width="220" height="550" as="geometry" />
        </mxCell>
        <mxCell id="vNDBK76pSApHjMuJZPkI-22" value="" style="endArrow=classic;startArrow=classic;html=1;rounded=0;" parent="1" source="vNDBK76pSApHjMuJZPkI-13" edge="1">
          <mxGeometry width="50" height="50" relative="1" as="geometry">
            <mxPoint x="440" y="450" as="sourcePoint" />
            <mxPoint x="739" y="415" as="targetPoint" />
          </mxGeometry>
        </mxCell>
        <mxCell id="OLzXIYQT-xG8Dp6KP-Yc-1" value="AGU repository" style="rounded=0;whiteSpace=wrap;html=1;" parent="1" vertex="1">
          <mxGeometry x="750" y="390" width="200" height="40" as="geometry" />
        </mxCell>
        <mxCell id="OLzXIYQT-xG8Dp6KP-Yc-2" value="DNO Repository" style="rounded=0;whiteSpace=wrap;html=1;" parent="1" vertex="1">
          <mxGeometry x="750" y="240" width="200" height="40" as="geometry" />
        </mxCell>
        <mxCell id="OLzXIYQT-xG8Dp6KP-Yc-3" value="Transport Company Repository" style="rounded=0;whiteSpace=wrap;html=1;" parent="1" vertex="1">
          <mxGeometry x="750" y="290" width="200" height="40" as="geometry" />
        </mxCell>
        <mxCell id="OLzXIYQT-xG8Dp6KP-Yc-4" value="Contact Repository" style="rounded=0;whiteSpace=wrap;html=1;" parent="1" vertex="1">
          <mxGeometry x="750" y="440" width="200" height="40" as="geometry" />
        </mxCell>
        <mxCell id="OLzXIYQT-xG8Dp6KP-Yc-5" value="Tank Repository" style="rounded=0;whiteSpace=wrap;html=1;" parent="1" vertex="1">
          <mxGeometry x="750" y="490" width="200" height="40" as="geometry" />
        </mxCell>
        <mxCell id="OLzXIYQT-xG8Dp6KP-Yc-6" value="Provider Repository" style="rounded=0;whiteSpace=wrap;html=1;" parent="1" vertex="1">
          <mxGeometry x="750" y="540" width="200" height="40" as="geometry" />
        </mxCell>
        <mxCell id="OLzXIYQT-xG8Dp6KP-Yc-7" value="Gas Measures Repositoy" style="rounded=0;whiteSpace=wrap;html=1;" parent="1" vertex="1">
          <mxGeometry x="750" y="590" width="200" height="40" as="geometry" />
        </mxCell>
        <mxCell id="OLzXIYQT-xG8Dp6KP-Yc-8" value="Temperature Measures Repository" style="rounded=0;whiteSpace=wrap;html=1;" parent="1" vertex="1">
          <mxGeometry x="750" y="640" width="200" height="40" as="geometry" />
        </mxCell>
        <mxCell id="OLzXIYQT-xG8Dp6KP-Yc-10" value="Repository" style="text;html=1;align=center;verticalAlign=middle;whiteSpace=wrap;rounded=0;" parent="1" vertex="1">
          <mxGeometry x="820" y="200" width="60" height="30" as="geometry" />
        </mxCell>
        <mxCell id="QBVRZLjhdWjeH_yIqgPw-1" value="PostgreSQL" style="shape=cylinder3;whiteSpace=wrap;html=1;boundedLbl=1;backgroundOutline=1;size=15;" parent="1" vertex="1">
          <mxGeometry x="1040" y="342.5" width="120" height="145" as="geometry" />
        </mxCell>
        <mxCell id="QBVRZLjhdWjeH_yIqgPw-2" value="URL" style="ellipse;shape=cloud;whiteSpace=wrap;html=1;" parent="1" vertex="1">
          <mxGeometry x="490" y="680" width="120" height="80" as="geometry" />
        </mxCell>
        <mxCell id="QBVRZLjhdWjeH_yIqgPw-3" value="" style="endArrow=classic;startArrow=classic;html=1;rounded=0;exitX=0.998;exitY=0.409;exitDx=0;exitDy=0;exitPerimeter=0;" parent="1" source="vNDBK76pSApHjMuJZPkI-21" target="QBVRZLjhdWjeH_yIqgPw-1" edge="1">
          <mxGeometry width="50" height="50" relative="1" as="geometry">
            <mxPoint x="590" y="709" as="sourcePoint" />
            <mxPoint x="410" y="830" as="targetPoint" />
          </mxGeometry>
        </mxCell>
        <mxCell id="QBVRZLjhdWjeH_yIqgPw-5" value="" style="endArrow=classic;startArrow=classic;html=1;rounded=0;" parent="1" source="vNDBK76pSApHjMuJZPkI-16" target="QBVRZLjhdWjeH_yIqgPw-2" edge="1">
          <mxGeometry width="50" height="50" relative="1" as="geometry">
            <mxPoint x="870" y="395" as="sourcePoint" />
            <mxPoint x="940" y="395" as="targetPoint" />
          </mxGeometry>
        </mxCell>
        <mxCell id="ePTtIV78_SQgR5F1CDz9-1" value="Alert Controller" style="rounded=0;whiteSpace=wrap;html=1;container=0;" vertex="1" parent="1">
          <mxGeometry x="250" y="380" width="100" height="60" as="geometry" />
        </mxCell>
        <mxCell id="ePTtIV78_SQgR5F1CDz9-3" value="Alert Service" style="rounded=0;whiteSpace=wrap;html=1;container=0;" vertex="1" parent="1">
          <mxGeometry x="450" y="340" width="200" height="40" as="geometry" />
        </mxCell>
        <mxCell id="ePTtIV78_SQgR5F1CDz9-7" value="Prediction Service" style="rounded=0;whiteSpace=wrap;html=1;" vertex="1" parent="1">
          <mxGeometry x="450" y="440" width="200" height="40" as="geometry" />
        </mxCell>
        <mxCell id="ePTtIV78_SQgR5F1CDz9-8" value="Load Repository" style="rounded=0;whiteSpace=wrap;html=1;" vertex="1" parent="1">
          <mxGeometry x="750" y="690" width="200" height="40" as="geometry" />
        </mxCell>
        <mxCell id="ePTtIV78_SQgR5F1CDz9-9" value="Alert Repository" style="rounded=0;whiteSpace=wrap;html=1;" vertex="1" parent="1">
          <mxGeometry x="750" y="340" width="200" height="40" as="geometry" />
        </mxCell>
        <mxCell id="ePTtIV78_SQgR5F1CDz9-10" value="Load Service" style="rounded=0;whiteSpace=wrap;html=1;" vertex="1" parent="1">
          <mxGeometry x="450" y="490" width="200" height="40" as="geometry" />
        </mxCell>
        <mxCell id="ePTtIV78_SQgR5F1CDz9-11" value="Load Controller" style="rounded=0;whiteSpace=wrap;html=1;container=0;" vertex="1" parent="1">
          <mxGeometry x="250" y="450" width="100" height="60" as="geometry" />
        </mxCell>
      </root>
    </mxGraphModel>
  </diagram>
</mxfile>
